SplineFontDB: 3.2
FontName: GrotesquerieMedium
FullName: Grotesquerie Medium
FamilyName: Grotesquerie Medium
Weight: Medium
Copyright: Copyright (c) 2021, RandomMaerks. All rights reserved.
UComments: "2021-6-15: Created with FontForge (http://fontforge.org)"
Version: 001.000
ItalicAngle: 0
UnderlinePosition: -100
UnderlineWidth: 50
Ascent: 800
Descent: 200
InvalidEm: 0
LayerCount: 2
Layer: 0 0 "Back" 1
Layer: 1 0 "Fore" 0
XUID: [1021 301 932173752 21058]
StyleMap: 0x0000
FSType: 0
OS2Version: 0
OS2_WeightWidthSlopeOnly: 0
OS2_UseTypoMetrics: 1
CreationTime: 1623766696
ModificationTime: 1624195328
PfmFamily: 17
TTFWeight: 700
TTFWidth: 5
LineGap: 90
VLineGap: 0
OS2TypoAscent: 0
OS2TypoAOffset: 1
OS2TypoDescent: 0
OS2TypoDOffset: 1
OS2TypoLinegap: 90
OS2WinAscent: 0
OS2WinAOffset: 1
OS2WinDescent: 0
OS2WinDOffset: 1
HheadAscent: 0
HheadAOffset: 1
HheadDescent: 0
HheadDOffset: 1
OS2Vendor: 'PfEd'
Lookup: 4 0 1 "'liga' Standard Ligatures in Latin lookup 0" { "'liga' Standard Ligatures in Latin lookup 0-1"  } ['liga' ('DFLT' <'dflt' > 'latn' <'dflt' > ) ]
Lookup: 258 0 0 "'kern' Horizontal Kerning in Latin lookup 0" { "'kern' Horizontal Kerning in Latin lookup 0-1" [150,15,2] } ['kern' ('DFLT' <'dflt' > 'latn' <'dflt' > ) ]
MarkAttachClasses: 1
DEI: 91125

StartChar: g
Encoding: 103 103 0
Width: 808
Flags: HW
HStem: 23 137.108<179.112 365.517> 470.963 146.037<194.753 349.696>
VStem: -0.0136719 123.048<215.283 390.782> 425.36 124.311<219.666 391.072>
LayerCount: 2
Fore
SplineSet
-0.013671875 294.879882812 m 0
 -0.013671875 464.072265625 95.68359375 617 271 617 c 0
 345.317382812 617 405.703125 572.412109375 451.766601562 530.041992188 c 1
 480.346679688 596.775390625 535.162109375 644.435546875 597 657 c 1
 681 583 l 1
 596.506835938 574.245117188 542.009765625 548.443359375 505.956054688 467.21875 c 1
 531.924804688 418.250976562 549.670898438 358.11328125 549.670898438 296.411132812 c 0
 549.670898438 127.21875 442.317382812 23 267 23 c 0
 230.000976562 23 190.473632812 25.5771484375 161 36 c 1
 78.193359375 -118.263671875 346.658203125 -47.7177734375 477.747070312 -8.0205078125 c 0
 637.916992188 40.4833984375 684.723632812 -37.5419921875 686 -39 c 1
 686 -159 l 1
 631 -81 524 -117.459960938 332 -157 c 0
 221.506835938 -179.754882812 -66 -169 78 84 c 1
 80.5556640625 82.8125 l 1
 42.439453125 134.251953125 -0.013671875 216.951171875 -0.013671875 294.879882812 c 0
109.509765625 310.306640625 m 0
 109.509765625 205.619140625 165.721679688 137.33984375 274.200195312 137.33984375 c 0
 382.677734375 137.33984375 436.626953125 206.56640625 436.626953125 311.254882812 c 0
 436.626953125 415.94140625 382.677734375 491.049804688 274.200195312 491.049804688 c 0
 165.721679688 491.049804688 109.509765625 414.99609375 109.509765625 310.306640625 c 0
EndSplineSet
EndChar

StartChar: a
Encoding: 97 97 1
Width: 695
Flags: HW
HStem: -0.145508 134.499<154.968 414.036> 265.27 128.875<187.841 389.79>
VStem: -0.398438 135.229<158.601 224.713> 465 118<355.106 432.051>
LayerCount: 2
Fore
SplineSet
54 557 m 1
 351.083007812 702.564453125 582.750976562 606.780273438 583 453 c 1
 595 1 595 0 595 0 c 2
 490 0 l 1
 492.671875 73.9013671875 490 0 492.671875 73.9013671875 c 1
 457 19 391.67578125 -0.1455078125 279.53515625 -0.1455078125 c 0
 102.174804688 -0.1455078125 -0.3984375 64.3017578125 -0.3984375 186.091796875 c 0
 -0.3984375 307.881835938 102.174804688 394.14453125 279.53515625 394.14453125 c 0
 343.028320312 394.14453125 441.508789062 373.126953125 483 353 c 1
 482.173828125 459.086914062 422 608 54 463 c 1
 54 557 l 1
117.678710938 187.599609375 m 0
 118.849196618 125.962201133 176.580078125 112.659179688 281.681640625 112.659179688 c 0
 386.78125 112.659179688 464.904296875 123.165039062 460.731445312 193.202148438 c 0
 456.896484375 257.583007812 351.231445312 281.450195312 285.854492188 282.850585938 c 0
 216.306640625 284.340820312 116 276 117.678710938 187.599609375 c 0
EndSplineSet
EndChar

StartChar: n
Encoding: 110 110 3
Width: 695
Flags: HW
LayerCount: 2
Fore
SplineSet
0 608 m 1
 0 0 l 1
 120 0 l 1
 118.424804688 320.202148438 l 1
 136.506835938 496.798828125 435.941856953 592.906725352 443 381 c 1
 443.342298289 380.068459658 l 1
 448 0 l 1
 566 0 l 1
 562 404 l 2
 561 509 513 599 382 603 c 0
 286.12109375 606.22265625 180.272460938 574.400390625 117.610351562 484.265625 c 1
 117 608 l 1
 0 608 l 1
EndSplineSet
EndChar

StartChar: i
Encoding: 105 105 4
Width: 238
Flags: HW
HStem: 0 21G<-0.439453 129.561> 588 20G<-0.439453 129.561> 668.76 132.24<18.731 120.389>
VStem: -0.439453 130<0 608> 1.12012 136.88<687.22 782.54>
LayerCount: 2
Fore
SplineSet
-3.3603515625 733.030273438 m 4xe8
 -3.3603515625 762.876953125 21.6728515625 787.91015625 53.4453125 787.91015625 c 4
 85.216796875 787.91015625 110.25 762.876953125 110.25 733.030273438 c 4
 110.25 703.18359375 85.216796875 678.150390625 53.4453125 678.150390625 c 4
 21.6728515625 678.150390625 -3.3603515625 703.18359375 -3.3603515625 733.030273438 c 4xe8
  Spiro
    -3.3603 733.03 o
    4.29183 760.499 o
    24.622 780.329 o
    53.4453 787.91 o
    82.268 780.329 o
    102.598 760.499 o
    110.25 733.03 o
    102.598 705.561 o
    82.268 685.732 o
    53.4453 678.151 o
    24.622 685.732 o
    4.29183 705.561 o
    0 0 z
  EndSpiro
-0.439453125 608 m 1xf0
 111.560546875 608 l 1
 111.560546875 0 l 1
 -0.439453125 0 l 1
 -0.439453125 608 l 1xf0
  Spiro
    -0.439453 608 v
    111.561 608 v
    111.561 0 v
    -0.439453 0 v
    0 0 z
  EndSpiro
EndSplineSet
EndChar

StartChar: r
Encoding: 114 114 5
Width: 577
Flags: HW
LayerCount: 2
Fore
SplineSet
0 608 m 1
 0 0 l 1
 117 0 l 1
 114.279296875 330.852539062 l 1
 139.451171875 454.999023438 320 552 438 475 c 1
 439 584 l 1
 416.40625 595.56640625 378.735351562 614.03125 347 615 c 0
 252.65234375 618.170898438 172.6171875 571.489257812 112.993164062 487.219726562 c 1
 112 608 l 1
 0 608 l 1
EndSplineSet
EndChar

StartChar: h
Encoding: 104 104 6
Width: 695
Flags: HW
VStem: 443 148<380.068 452.669>
LayerCount: 2
Fore
SplineSet
0 800 m 1
 0 0 l 1
 117 0 l 1
 115.424804688 320.202148438 l 1
 133.506835938 496.798828125 443.94140625 592.90625 451 381 c 1
 451.342773438 380.068359375 l 1
 455 0 l 1
 569 0 l 1
 565 404 l 2
 564 509 513 599 382 603 c 0
 286.12109375 606.22265625 177.272460938 574.400390625 114.610351562 484.265625 c 1
 114 800 l 1
 0 800 l 1
EndSplineSet
EndChar

StartChar: m
Encoding: 109 109 7
Width: 1124
Flags: HW
HStem: 0 22G<0 151 447.755 602 888.755 1024> 588 20G<0 148.099>
VStem: 0 148.61<0 378.44 484.266 608> 443 159<0 411.436> 889 135<1 443.646>
LayerCount: 2
Fore
SplineSet
563 0 m 2
 448 0 l 1
 443.342298289 380.068459658 l 1
 443 381 l 1
 435.941856953 592.906725352 134.506835938 496.798828125 116.424804688 320.202148438 c 1
 118 0 l 1
 0 0 l 1
 0 608 l 1
 115 608 l 1
 115.610351562 484.265625 l 1
 178.272460938 574.400390625 286.12109375 613.22265625 382 610 c 0
 464.572980074 607.224578995 533 524 548.454101562 479.756835938 c 1
 626 608 742.111245989 613.920238447 829 611 c 0
 959.987304688 606.59765625 1011 510 1012 405 c 2
 1016 1 l 1
 901 1 l 1
 896.342773438 381.068359375 l 1
 896 382 l 1
 889.462890625 578.248046875 567 484 559.516601562 351.848632812 c 1
 563 0 l 2
564 1 m 1025
EndSplineSet
EndChar

StartChar: o
Encoding: 111 111 8
Width: 650
Flags: HW
HStem: 0 130.108<193.976 351.1> 477.963 136.037<200.244 347.2>
VStem: 0.31543 123.048<204.773 395.424> 425.689 124.311<210.903 391.667>
LayerCount: 2
Fore
SplineSet
550 296.411132812 m 0
 550 127.21875 442.646484375 0 267.329101562 0 c 0
 96.583984375 0 0.3154296875 126.256835938 0.3154296875 294.879882812 c 0
 0.3154296875 464.072265625 96.0126953125 614 271.329101562 614 c 0
 443.350585938 614 550 469.565429688 550 296.411132812 c 0
105.600585938 300.143554688 m 4
 105.600585938 194.990234375 165.075195312 109.58203125 274.03515625 109.58203125 c 4
 382.99609375 109.58203125 447.229492188 195.942382812 447.229492188 301.095703125 c 4
 447.229492188 406.247070312 382.99609375 502.658203125 274.03515625 502.658203125 c 4
 165.075195312 502.658203125 105.600585938 405.296875 105.600585938 300.143554688 c 4
EndSplineSet
EndChar

StartChar: j
Encoding: 106 106 9
Width: 310
Flags: HW
HStem: 588 20G<71.5605 201.561> 668.76 132.24<90.731 192.389>
VStem: 71.5605 130<-45.6095 608> 73.1201 136.88<687.22 782.54>
LayerCount: 2
Fore
SplineSet
74.3896484375 729 m 0xe8
 74.3896484375 758.846679688 99.4228515625 783.879882812 131.1953125 783.879882812 c 0
 162.966796875 783.879882812 188 758.846679688 188 729 c 0
 188 699.153320312 162.966796875 674.120117188 131.1953125 674.120117188 c 0
 99.4228515625 674.120117188 74.3896484375 699.153320312 74.3896484375 729 c 0xe8
  Spiro
    74.3897 729 o
    82.0418 756.469 o
    102.372 776.299 o
    131.195 783.88 o
    160.018 776.299 o
    180.348 756.469 o
    188 729 o
    180.348 701.531 o
    160.018 681.701 o
    131.195 674.12 o
    102.372 681.701 o
    82.0418 701.531 o
    0 0 z
  EndSpiro
71.560546875 608 m 1xe0
 181.560546875 608 l 1
 181.560546875 0 l 2
 180.560546875 -155 74.560546875 -197 -29.439453125 -199 c 1
 -29.439453125 -91 l 1
 -29.439453125 -91 69.560546875 -99 71.560546875 -24 c 2
 71.560546875 608 l 1xe0
EndSplineSet
EndChar

StartChar: b
Encoding: 98 98 10
Width: 691
Flags: HW
HStem: 0 140<226.569 386.012>
VStem: -0.34082 143<209.649 396.148> 467.659 123<233.019 382.305>
LayerCount: 2
Fore
SplineSet
130.434570312 315.370117188 m 4
 130.434570312 414.139648438 206 499.5 312 499.5 c 4
 410.770147359 499.5 484.426862448 423.990243729 481.594726562 309.419921875 c 4
 478 164 408.624023438 113.30078125 309.864257812 111.879882812 c 4
 144.454101562 109.5 130.434570312 216.599609375 130.434570312 315.370117188 c 4
590.659179688 307 m 4
 587.03125 418.102539062 521.050467563 617.691107186 343.659179688 620 c 4
 190 622 132.659179688 569 111.659179688 507 c 5
 111.659179688 800 l 5
 -0.3408203125 800 l 5
 -0.3408203125 0 l 5
 114.659179688 0 l 5
 113.659179688 103 l 5
 147.659179688 42 226.428710938 0 329.659179688 0 c 4
 464.659179688 0 598.659179688 62 590.659179688 307 c 4
EndSplineSet
EndChar

StartChar: u
Encoding: 117 117 11
Width: 613
Flags: HW
VStem: 391.39 137.61<222.319 288.798>
LayerCount: 2
Fore
SplineSet
513 -1 m 1
 513 607 l 1
 394 607 l 1
 395.575195312 268.797851562 l 1
 377.493164062 98.8525390625 125.059570312 28.15625 118 208 c 1
 116.111328125 340.778320312 114.706054688 474.0390625 113 607 c 1
 -1 607 l 1
 3 203 l 2
 4 98 23 8 154 4 c 0
 249.87890625 0.77734375 333.727539062 19.599609375 396.389648438 109.734375 c 1
 397 -1 l 1
 513 -1 l 1
EndSplineSet
EndChar

StartChar: e
Encoding: 101 101 12
Width: 708
Flags: HW
HStem: -1 137<229.327 505.892> 487.963 137.037<228.032 369.991>
LayerCount: 2
Fore
SplineSet
605.279296875 256.639648438 m 1
 607.083007812 271.493164062 608 288.772460938 608 304.411132812 c 0
 608 477.565429688 470.350585938 625 298.329101562 625 c 0
 123.012695312 625 0.3154296875 463.072265625 0.3154296875 293.879882812 c 0
 0.3154296875 125.256835938 157.327734689 -1.82694889787 294.329101562 -1 c 0
 460 0 506 18 565.329101562 54 c 1
 563.329101562 150 l 1
 481.329101562 123 428.37250278 105.620173886 326.329101562 106 c 4
 192 106.5 135.283203125 190.7109375 119.686523438 258 c 1
 584.240234375 257 l 1
 605.279296875 256.639648438 l 1
119.123046875 357.400390625 m 1
 143.501953125 428.049804688 214.93359375 504.155273438 299.3046875 504.155273438 c 0
 384.006835938 504.155273438 460.2578125 429.194335938 485.930664062 358.400390625 c 1
 119.123046875 357.400390625 l 1
EndSplineSet
EndChar

StartChar: v
Encoding: 118 118 13
Width: 724
Flags: HW
HStem: 0 21G<220.5 426.711> 588 20G<0 156.54 474.397 624>
LayerCount: 2
Fore
SplineSet
0 608 m 1
 130 608 l 1
 326 112.5 l 1
 499 608 l 1
 624 608 l 1
 420 0 l 1
 228 0 l 1
 0 608 l 1
EndSplineSet
EndChar

StartChar: s
Encoding: 115 115 14
Width: 684
Flags: HW
VStem: 1.89453 582<103.013 446>
LayerCount: 2
Fore
SplineSet
2.89453125 436 m 1
 -0.10546875 138.5 460 344 471.89453125 191 c 5
 470 48 58.4796149067 120.07763573 -0.10546875 164 c 1
 1.89453125 54 l 1
 129.89453125 -13 264.89453125 0 329.89453125 4 c 0
 551.484375 17.63671875 581.015812308 106.040033068 583.89453125 196 c 0
 591.89453125 446 114 302 114 404 c 1
 121.225857329 560.71040702 494.30604917 485.575264409 559.89453125 450 c 1
 560.89453125 551 l 1
 488.752929688 583.271484375 389.89453125 616 281.89453125 616 c 1
 122.950195312 609.859375 7.767578125 541.516601562 3.0205078125 435.978515625 c 1
 2.89453125 436 l 1
EndSplineSet
EndChar

StartChar: c
Encoding: 99 99 15
Width: 650
Flags: HW
HStem: 0 139.108<207.322 442.286> 475.963 139.037<201.807 442.509>
VStem: -0.0136719 129.014<219.734 401.902>
LayerCount: 2
Fore
SplineSet
543 544 m 5
 543 432 l 1
 543 432 452.966608441 503.597068782 272.091796875 499.962890625 c 0
 143.971679688 497.388671875 107 416 109 294 c 1
 110 194 161.48828125 110.078125 272.091796875 107.108398438 c 0
 435.992428033 102.707633641 533.435546875 169.329101562 550 175 c 1
 550 55 l 1
 510.189453125 36.728515625 486 0 267 0 c 0
 96.2548828125 0 -0.013671875 126.256835938 -0.013671875 294.879882812 c 0
 -0.013671875 464.072265625 95.68359375 615 271 615 c 0
 468 615 518 568 543 544 c 5
503.276367188 28.4658203125 m 1025
EndSplineSet
EndChar

StartChar: d
Encoding: 100 100 16
Width: 691
Flags: HW
HStem: -2 141<148.306 307.749>
VStem: -56.3408 123<231.019 380.305> 388.659 146<-2 101> 391.659 143<208.033 396.047 505 798>
LayerCount: 2
Fore
SplineSet
459.224609375 314.370117188 m 0
 459.224609375 413.139648438 383.659179688 498.5 277.659179688 498.5 c 0
 178.888671875 498.5 105.232421875 422.990234375 108.064453125 308.419921875 c 0
 111.659179688 163 181.03515625 112.30078125 279.794921875 110.879882812 c 0
 445.205078125 108.5 459.224609375 215.599609375 459.224609375 314.370117188 c 0
-1 306 m 0
 2.6279296875 417.102539062 68.6083984375 616.69140625 246 619 c 0
 399.659179688 621 457 568 478 506 c 1
 478 799 l 1
 590 799 l 1
 590 -1 l 1
 475 -1 l 1
 476 102 l 1
 442 41 363.23046875 -1 260 -1 c 0
 125 -1 -9 61 -1 306 c 0
EndSplineSet
EndChar

StartChar: f
Encoding: 102 102 17
Width: 635
Flags: HW
HStem: 0 21G<146 276> 487 121.53<0 146 277.925 535>
VStem: 146 130<0 487 608.741 668.618>
LayerCount: 2
Fore
SplineSet
535 608 m 1
 535 502 l 1
 261.204101562 502 l 1
 262 0 l 1
 146 0 l 5
 146 502 l 1
 0 502 l 1
 0 609 l 1
 146 608.741210938 l 1
 146 800 384 938 494 813 c 1
 494 725 l 1
 374 802 267 703 263.924804688 608.530273438 c 1
 535 608 l 1
EndSplineSet
EndChar

StartChar: k
Encoding: 107 107 18
Width: 721
Flags: HW
HStem: 0 21G<0 130 438.741 637> 588 20G<389.202 637> 781 20G<0 130>
VStem: 0 130<0 256.689 419.026 801>
LayerCount: 2
Fore
SplineSet
0 801 m 1
 110 801 l 1
 109 419.026367188 l 1
 420 608 l 1
 619 608 l 1
 280 401 l 1
 637 0 l 1
 494 0 l 1
 173.474609375 351.817382812 l 1
 109 313.689453125 l 1
 110 0 l 1
 0 0 l 1
 0 801 l 1
EndSplineSet
EndChar

StartChar: l
Encoding: 108 108 19
Width: 230
Flags: HW
HStem: 0 21G<0 130> 780 20G<0 130>
VStem: 0 130<0 800>
LayerCount: 2
Fore
SplineSet
0 800 m 1
 105 800 l 5
 105 0 l 5
 0 0 l 1
 0 800 l 1
EndSplineSet
EndChar

StartChar: p
Encoding: 112 112 20
Width: 691
Flags: HW
HStem: 455 153<226.569 392.329>
VStem: -0.34082 145<505 608> -0.34082 143<-192 101 208.055 393.362> 467.659 123<219.465 374.981>
LayerCount: 2
Fore
SplineSet
130.775390625 282.629882812 m 0
 130.775390625 183.860351562 206.340820312 98.5 312.340820312 98.5 c 0
 411.111328125 98.5 484.767578125 174.009765625 481.935546875 288.580078125 c 0
 478.340820312 434 444 499.5 310.205078125 496.120117188 c 0
 144.830560772 491.942481138 130.775390625 381.400390625 130.775390625 282.629882812 c 0
591 301 m 0
 587.372070312 189.897460938 521.391601562 -9.69140625 344 -12 c 0
 190.340820312 -14 133 39 112 101 c 1
 112 -192 l 1
 0 -192 l 1
 0 608 l 1
 115 608 l 1
 114 505 l 1
 148 566 226.76953125 608 330 608 c 0
 465 608 599 546 591 301 c 0
EndSplineSet
EndChar

StartChar: q
Encoding: 113 113 21
Width: 691
Flags: HW
HStem: 454 154<198.33 364.09>
VStem: 0 123<225.695 374.981> 448 143<209.953 392.978>
LayerCount: 2
Fore
SplineSet
460.224609375 282.629882812 m 0
 460.224609375 183.860351562 384.659179688 98.5 278.659179688 98.5 c 0
 179.888671875 98.5 106.232421875 174.009765625 109.064453125 288.580078125 c 0
 112.659179688 434 134 499.5 280.794921875 496.120117188 c 4
 446.178366402 492.312242538 460.224609375 381.400390625 460.224609375 282.629882812 c 0
0 301 m 0
 3.6279296875 189.897460938 69.6083984375 -9.69140625 247 -12 c 0
 400.659179688 -14 458 39 479 101 c 1
 479 -192 l 1
 591 -192 l 1
 591 608 l 1
 476 608 l 1
 477 505 l 1
 443 566 364.23046875 608 261 608 c 0
 126 608 -8 546 0 301 c 0
EndSplineSet
EndChar

StartChar: t
Encoding: 116 116 22
Width: 646
Flags: HW
HStem: 485 123<0 132 262 546> 781 20G<132 262>
VStem: 132 130<147.986 485 608 801>
LayerCount: 2
Fore
SplineSet
132 801 m 1
 251 801 l 1
 251 608 l 1
 546 608 l 1
 546 502 l 1
 251 502 l 1
 251 210 l 1
 251 204.568359375 l 2
 251 22 416 106.5 488 144 c 1
 488 34 l 1
 342 -23 128 -30 132 175.5 c 1
 132 502 l 1
 0 502 l 1
 0 608 l 1
 132 608 l 1
 132 801 l 1
EndSplineSet
EndChar

StartChar: w
Encoding: 119 119 23
Width: 1205
Flags: HW
HStem: 0 21G<220.5 426.711 701.5 907.711> 588 20G<0 156.54 474.397 637.54 955.397 1105>
LayerCount: 2
Fore
SplineSet
0 608 m 1
 125 608 l 5
 326 111.5 l 1
 493 608 l 1
 612 608 l 1
 618 608 l 1
 807 111.5 l 1
 981 608 l 1
 1105 608 l 1
 901 0 l 1
 709 0 l 1
 556.472222222 406.740740741 l 1
 420 0 l 1
 228 0 l 1
 0 608 l 1
EndSplineSet
EndChar

StartChar: x
Encoding: 120 120 24
Width: 751
Flags: HW
LayerCount: 2
Fore
SplineSet
0 0 m 5
 150 0 l 5
 326.454101562 226.48046875 l 1
 521 0 l 5
 651 0 l 5
 400.095703125 309.344726562 l 1
 625 608 l 1
 490 608 l 1
 319.208984375 387.653320312 l 1
 142 608 l 1
 1 608 l 1
 254.81640625 312.59765625 l 1
 0 0 l 5
EndSplineSet
EndChar

StartChar: y
Encoding: 121 121 25
Width: 724
Flags: HWO
HStem: 588 20G<0 156.54 474.397 624>
LayerCount: 2
Fore
SplineSet
0 608 m 1
 132 608 l 1
 325 108.5 l 1
 497 608 l 1
 624 608 l 1
 420 17 l 1
 419.735351562 17 l 1
 302.807617188 -266.740234375 150.295342226 -198.118445742 0 -133 c 1
 0 -19 l 1
 64.537109375 -51.27734375 234 -146 303.092773438 17 c 5
 228 17 l 1
 0 608 l 1
EndSplineSet
EndChar

StartChar: z
Encoding: 122 122 26
Width: 710
Flags: HW
LayerCount: 2
Fore
SplineSet
0 608 m 25
 0 493.5 l 1
 444 493.5 l 25
 0 115.5 l 1
 0 0 l 25
 610 0 l 1
 610 115.5 l 25
 186 115.5 l 1
 610 493.5 l 25
 610 608 l 25
 0 608 l 25
EndSplineSet
EndChar

StartChar: comma
Encoding: 44 44 27
Width: 244
Flags: W
HStem: -96 50<0 57.0119> -9.5 139<21 73.0074>
VStem: 0 144<13.7353 108.5>
LayerCount: 2
Fore
SplineSet
0 57.5 m 4
 0 97.5 32 129.5 72 129.5 c 4
 112 129.5 144 97.5 144 57.5 c 4
 144 56.6165619797 143.985337472 55.7407433637 143.956273435 54.8726124055 c 4
 142.282828723 -13.4862658247 98.7351330084 -81.1897298614 0 -96 c 5
 0 -46 l 5
 30.0632190859 -44.2049758086 55.8980128118 -30.0330478197 73.0073854427 -9.49434743346 c 5
 72.6719923411 -9.49811416869 72.3361909402 -9.5 72 -9.5 c 4
 32 -9.5 0 17.5 0 57.5 c 4
EndSplineSet
Validated: 1
EndChar

StartChar: period
Encoding: 46 46 28
Width: 244
Flags: W
HStem: -9.5 139<21 123>
VStem: 0 144<9 108.5>
LayerCount: 2
Fore
SplineSet
0 57.5 m 4
 0 97.5 32 129.5 72 129.5 c 4
 112 129.5 144 97.5 144 57.5 c 4
 144 17.5 112 -9.5 72 -9.5 c 4
 32 -9.5 0 17.5 0 57.5 c 4
EndSplineSet
Validated: 1
EndChar

StartChar: exclam
Encoding: 33 33 29
Width: 244
Flags: W
HStem: -9.5 139<21 123> 780 20G<1 139>
VStem: 0 144<9 108.5 627.917 800> 24 97<210 389.565>
LayerCount: 2
Fore
SplineSet
24 210 m 5xd0
 1 800 l 5
 139 800 l 5
 121 210 l 5
 24 210 l 5xd0
0 57.5 m 4xe0
 0 97.5 32 129.5 72 129.5 c 4
 112 129.5 144 97.5 144 57.5 c 4
 144 17.5 112 -9.5 72 -9.5 c 4
 32 -9.5 0 17.5 0 57.5 c 4xe0
EndSplineSet
Validated: 1
EndChar

StartChar: slash
Encoding: 47 47 30
Width: 530
Flags: W
HStem: 0 21G<5.97363 169.948> 780 20G<277.002 441.951>
LayerCount: 2
Fore
SplineSet
283.951171875 800 m 1
 441.951171875 800 l 1
 162.973632812 0 l 1
 5.9736328125 0 l 1
 283.951171875 800 l 1
EndSplineSet
Validated: 1
EndChar

StartChar: question
Encoding: 63 63 31
Width: 609
Flags: W
HStem: -9.5 139<183.392 285.392>
VStem: 162.392 144<9 108.5> 368 146<503.607 629.515>
LayerCount: 2
Fore
SplineSet
0.3916015625 725 m 1
 0.3916015625 565 l 1
 139.654296875 659.790039062 369.589476865 732.103681274 368 557 c 1
 366 456 167 366 169.391601562 205 c 1
 302.391601562 205 l 1
 316 364 498 366 514 572 c 1
 502 904 141.84375 823.767578125 0.3916015625 725 c 1
162.391601562 57.5 m 0
 162.391601562 97.5 194.391601562 129.5 234.391601562 129.5 c 0
 274.391601562 129.5 306.391601562 97.5 306.391601562 57.5 c 0
 306.391601562 17.5 274.391601562 -9.5 234.391601562 -9.5 c 0
 194.391601562 -9.5 162.391601562 17.5 162.391601562 57.5 c 0
EndSplineSet
Validated: 41
EndChar

StartChar: less
Encoding: 60 60 32
Width: 595
Flags: W
HStem: 588 20G<445.803 492>
LayerCount: 2
Fore
SplineSet
492 608 m 29
 492 468.5 l 5
 186 336 l 29
 495 199 l 29
 495 73 l 5
 0 273 l 29
 0 395 l 5
 492 608 l 29
EndSplineSet
Validated: 1
EndChar

StartChar: greater
Encoding: 62 62 33
Width: 594
Flags: W
LayerCount: 2
Fore
SplineSet
0 609 m 25
 0 469.5 l 1
 308 337 l 25
 0 200 l 25
 0 74 l 1
 494 274 l 25
 494 396 l 1
 0 609 l 25
EndSplineSet
Validated: 9
EndChar

StartChar: parenleft
Encoding: 40 40 34
Width: 488
Flags: W
HStem: 0 21G<131 387.698>
LayerCount: 2
Fore
SplineSet
380 799 m 1
 382 669 l 1
 54.1521758676 638.62108905 68.606104056 163.999995954 386 132.5 c 1
 388 0 l 17
 -126 44 -118 773 380 799 c 1
EndSplineSet
Validated: 33
EndChar

StartChar: parenright
Encoding: 41 41 35
Width: 480
Flags: W
HStem: 1 21G<0.476562 257.477>
LayerCount: 2
Fore
SplineSet
0.4765625 800 m 1
 0.4765625 670 l 1
 331.51953125 634.295898438 325.432617188 159.659179688 0.4765625 133.5 c 1
 0.4765625 1 l 17
 514.4765625 45 498.4765625 774 0.4765625 800 c 1
EndSplineSet
Validated: 41
EndChar

StartChar: braceleft
Encoding: 123 123 36
Width: 440
Flags: W
HStem: -1 21G<218.047 340> 780 20G<240.5 340>
LayerCount: 2
Fore
SplineSet
340 637 m 1
 258 639 239 411 156 411 c 1
 265 385 283 138.5 340 137.5 c 1
 340 -1 l 3
 96.0947265625 -1 259 334 0 332 c 1
 0 384 0 490 0 490 c 3
 172.104619345 490 141 795 340 800 c 0
 340 637 l 1
EndSplineSet
Validated: 33
EndChar

StartChar: braceright
Encoding: 125 125 37
Width: 440
Flags: W
LayerCount: 2
Fore
SplineSet
0 638 m 1
 82 640 101 412 184 412 c 1
 75 386 57 139.5 0 138.5 c 1
 0 0 l 3
 243.905273438 0 81 335 340 333 c 1
 340 385 340 491 340 491 c 3
 167.895507812 491 199 796 0 801 c 0
 0 638 l 1
EndSplineSet
Validated: 41
EndChar

StartChar: H
Encoding: 72 72 38
Width: 787
Flags: W
HStem: 0 21G<0 145 550 693> 358 140<144.11 550> 780 20G<0 143.05 550 691.05>
VStem: 0 143.76<0 358 498 800> 550 143<0 358 498 800>
LayerCount: 2
Fore
SplineSet
0 800 m 1
 143 800 l 1
 143.759765625 498 l 1
 550 498 l 1
 550 800 l 1
 691 800 l 1
 693 0 l 1
 550 0 l 1
 550 358 l 1
 144.110351562 358 l 1
 145 0 l 1
 0 0 l 1
 0 800 l 1
EndSplineSet
Validated: 1
EndChar

StartChar: equal
Encoding: 61 61 39
Width: 754
Flags: W
HStem: 187 128<0 654> 480 128<0 654>
LayerCount: 2
Fore
SplineSet
0 315 m 1
 654 315 l 1
 654 187 l 1
 0 187 l 1
 0 315 l 1
0 608 m 1
 654 608 l 1
 654 480 l 1
 0 480 l 1
 0 608 l 1
EndSplineSet
Validated: 1
EndChar

StartChar: backslash
Encoding: 92 92 40
Width: 537
Flags: W
LayerCount: 2
Fore
SplineSet
279 0 m 1
 437 0 l 1
 158.022460938 800 l 1
 1.0224609375 800 l 1
 279 0 l 1
EndSplineSet
Validated: 9
EndChar

StartChar: bracketright
Encoding: 93 93 41
Width: 345
Flags: W
HStem: 0 138.5<1 102> 645 155<0 108>
VStem: 0 245<0 138.5 645 800> 102 143<138.5 645>
LayerCount: 2
Fore
SplineSet
245 800 m 25xe0
 245 0 l 25xe0
 1 0 l 25
 1 138.5 l 25
 102 138.5 l 25xd0
 108 645 l 25
 0 645 l 25
 0 800 l 25
 245 800 l 25xe0
EndSplineSet
Validated: 1
EndChar

StartChar: bracketleft
Encoding: 91 91 42
Width: 344
Flags: W
LayerCount: 2
Fore
SplineSet
0 800 m 25
 0 0 l 25
 244 0 l 25
 244 138.5 l 25
 154 138.5 l 25
 148 647 l 25
 241 647 l 25
 241 800 l 25
 0 800 l 25
EndSplineSet
Validated: 9
EndChar

StartChar: bar
Encoding: 124 124 43
Width: 247
Flags: W
HStem: 780 20G<0 147>
VStem: 0 147<-132 800>
LayerCount: 2
Fore
SplineSet
0 800 m 5
 147 800 l 5
 147 -132 l 5
 0 -132 l 5
 0 800 l 5
EndSplineSet
Validated: 1
EndChar

StartChar: asciicircum
Encoding: 94 94 44
Width: 632
Flags: W
LayerCount: 2
Fore
SplineSet
0 652 m 5
 0 520 l 5
 266 695 l 5
 530 504 l 5
 532 638 l 5
 316 800 l 5
 210 800 l 5
 0 652 l 5
EndSplineSet
Validated: 9
EndChar

StartChar: quotesingle
Encoding: 39 39 45
Width: 277
Flags: W
LayerCount: 2
Fore
SplineSet
34 800 m 1
 36 722 42.345703125 678.430664062 0 608 c 9
 0 540 l 1
 100.8046875 600.916015625 139.778320312 699.91796875 177 800 c 9
 34 800 l 1
EndSplineSet
Validated: 41
EndChar

StartChar: quotedbl
Encoding: 34 34 46
Width: 446
Flags: W
LayerCount: 2
Fore
SplineSet
203 801 m 1
 205 723 211.345703125 678.430664062 169 608 c 9
 169 541 l 1
 269.8046875 601.916015625 308.778320312 700.91796875 346 801 c 9
 203 801 l 1
34 800 m 1
 36 722 42.345703125 677.430664062 0 607 c 9
 0 540 l 1
 100.8046875 600.916015625 139.778320312 699.91796875 177 800 c 9
 34 800 l 1
EndSplineSet
Validated: 41
EndChar

StartChar: Y
Encoding: 89 89 47
Width: 846
Flags: W
LayerCount: 2
Fore
SplineSet
0 800 m 5
 312 305.5 l 5
 338.161132812 305.5 l 5
 147 0 l 5
 301 0 l 5
 473.725585938 305.5 l 5
 474 305.5 l 5
 766 800 l 5
 601 800 l 5
 396 440.5 l 5
 172 800 l 5
 0 800 l 5
EndSplineSet
Validated: 9
EndChar

StartChar: N
Encoding: 78 78 48
Width: 787
Flags: W
LayerCount: 2
Fore
SplineSet
143 800 m 5
 0 800 l 5
 0 0 l 5
 145 0 l 5
 142 557 l 5
 550 0 l 5
 693 0 l 5
 691 800 l 5
 550 800 l 5
 546 230 l 5
 143 800 l 5
EndSplineSet
Validated: 9
EndChar

StartChar: I
Encoding: 73 73 49
Width: 409
Flags: W
LayerCount: 2
Fore
SplineSet
1 136 m 1
 1 0 l 1
 96 0 l 1
 241 0 l 1
 323 0 l 1
 323 136 l 1
 240.700195312 136 l 1
 239.28515625 671 l 1
 322 671 l 1
 322 801 l 1
 0 801 l 1
 0 671 l 1
 96 671 l 1
 96 136 l 1
 1 136 l 1
EndSplineSet
Validated: 9
EndChar

StartChar: O
Encoding: 79 79 50
Width: 839
Flags: W
HStem: 0 139.08<278.77 437.89> 638.66 162.34<278.77 437.89>
VStem: 0 149.1<288.822 493.441> 569.02 154.98<288.822 493.441>
LayerCount: 2
Fore
SplineSet
149.099609375 390.240234375 m 4
 149.099609375 261.48046875 243.059570312 139.080078125 359.059570312 139.080078125 c 4
 475.059570312 139.080078125 569.01953125 261.48046875 569.01953125 390.240234375 c 4
 569.01953125 519 475.059570312 638.66015625 359.059570312 638.66015625 c 4
 243.059570312 638.66015625 149.099609375 519 149.099609375 390.240234375 c 4
0 402 m 4
 0 624 162 801 362 801 c 4
 562 801 724 624 724 402 c 4
 724 180 562 0 362 0 c 4
 162 0 0 180 0 402 c 4
EndSplineSet
Validated: 1
EndChar

StartChar: M
Encoding: 77 77 51
Width: 1004
Flags: W
HStem: 0 21G<0 143.75 755.75 899.5> 781 20G<0 164.784 734.119 899.5>
VStem: 0 143.75<0 557> 755.75 143.75<0 557>
LayerCount: 2
Fore
SplineSet
391.774414062 71.16015625 m 5
 141.5 557 l 5
 143.75 0 l 5
 0 0 l 5
 0 801 l 5
 154.25 801 l 5
 455 230 l 5
 744.25 801 l 5
 899.5 801 l 5
 899.5 0 l 5
 755.75 0 l 5
 758 557 l 5
 501 71 l 5
 391.774414062 71.16015625 l 5
EndSplineSet
Validated: 1
EndChar

StartChar: A
Encoding: 65 65 52
Width: 851
Flags: W
HStem: 0 21G<0 156.885 619.623 766> 138 134<260.217 535.082> 780 20G<312 504.7>
LayerCount: 2
Fore
SplineSet
0 0 m 1
 320 800 l 1
 498 800 l 1
 766 0 l 1
 627 0 l 1
 576.1015625 138 l 1
 209.309570312 138 l 1
 148 0 l 1
 0 0 l 1
535.08203125 272 m 1
 406 637 l 1
 260.216796875 272 l 1
 535.08203125 272 l 1
EndSplineSet
Validated: 1
EndChar

StartChar: B
Encoding: 66 66 53
Width: 665
Flags: W
HStem: 0 137.998<141.605 388.852> 362 138<141.605 393.524> 656.164 144.836<141.605 403.816>
VStem: -0.394531 142<137.998 362 500 656.164>
LayerCount: 2
Fore
SplineSet
141.60546875 656.1640625 m 1
 141.60546875 500 l 1
 327.60546875 500 l 2
 330.959960938 499.979492188 334.28125 499.905273438 337.568359375 499.778320312 c 0
 480.361328125 508.576171875 472.51953125 654.692382812 328.219726562 655.587890625 c 2
 141.60546875 656.1640625 l 1
141.60546875 801 m 1
 338.60546875 801 l 2
 588.087890625 799.450195312 650 491 511.624023438 431.87890625 c 1
 642.924726649 322.476140668 611.862818379 -3.4932796283e-14 326.60546875 0 c 2
 141.60546875 0 l 1
 140.60546875 0 l 1
 -0.39453125 0 l 1
 -0.39453125 801 l 1
 141.60546875 801 l 1
141.60546875 362 m 1
 141.60546875 137.998046875 l 1
 327.219726562 137.423828125 l 2
 479.62890625 137.126953125 475.599609375 360.508789062 328.219726562 361.423828125 c 2
 141.60546875 362 l 1
EndSplineSet
Validated: 33
EndChar

StartChar: E
Encoding: 69 69 54
Width: 665
Flags: W
LayerCount: 2
Fore
SplineSet
573 137.4453125 m 21
 142 137.998046875 l 5
 142 362 l 5
 573 361.447265625 l 5
 573 500 l 5
 142 500 l 5
 142 656.1640625 l 5
 573 655.611328125 l 5
 572 801 l 5
 142 801 l 5
 0 801 l 5
 0 0 l 5
 141 0 l 5
 142 0 l 5
 573 0 l 5
 573 137.4453125 l 21
573 500 m 1029
573 0 m 1029
573 137.4453125 m 1029
EndSplineSet
Validated: 9
EndChar

StartChar: R
Encoding: 82 82 55
Width: 703
Flags: W
HStem: 0 21G<0 142 427.353 580> 380 132.904<142 202.777 337 421.687> 654.068 145.932<142 420.588>
VStem: 0 142<0 380 512.904 654.068 800 801> 435 145<0 70.5393>
LayerCount: 2
Fore
SplineSet
0 801 m 5
 142 801 l 5
 142 800 l 5
 340 800 l 6
 662 798 670 386 337 381 c 5
 458 364 579 152 580 0 c 5
 435 0 l 5
 419.705503259 115.158563699 252.03125 380 142 380 c 5
 142 0 l 5
 0 0 l 5
 0 801 l 5
142 512.904495737 m 5
 340.614257812 512.423828125 l 6
 493.028320312 514.711914062 487.994140625 652.672851562 340.614257812 653.587890625 c 6
 142 654.068359375 l 5
 142 512.904495737 l 5
EndSplineSet
Validated: 33
EndChar

StartChar: G
Encoding: 71 71 56
Width: 812
Flags: W
HStem: 0 145.08<272.669 486.603>
VStem: 0 149.1<289.038 491.733>
LayerCount: 2
Fore
SplineSet
655 586 m 1025
723 432 m 1
 347 432 l 1
 347 292 l 1
 549.533203125 292 l 1
 547 194 548 152 359.059570312 145.080078125 c 0
 243.137292305 140.8344378 149.099609375 261.48046875 149.099609375 390.240234375 c 0
 149.099609375 519 244.217773438 626.307617188 359.059570312 642.66015625 c 0
 530 667 625.633789062 614.119140625 655 586 c 1
 656.134765625 735.861328125 l 1
 629 757 587.249023438 812.365234375 362 793 c 0
 141 774 0 624 0 402 c 0
 0 180 162 0 362 0 c 0
 695 0 751.304699165 189.321430109 723 432 c 1
EndSplineSet
Validated: 41
EndChar

StartChar: U
Encoding: 85 85 57
Width: 715
Flags: W
LayerCount: 2
Fore
SplineSet
0 800 m 5
 1 222 l 5
 1 -67 605 -89 603 214 c 5
 600 800 l 5
 453 800 l 5
 459 247 l 5
 459 104 160 102 150 272 c 5
 149 800 l 5
 0 800 l 5
EndSplineSet
Validated: 41
EndChar

StartChar: S
Encoding: 83 83 58
Width: 857
Flags: W
LayerCount: 2
Fore
SplineSet
3.9423828125 565.62109375 m 1
 0.0546875 257.146484375 584.342773438 376.981445312 594.713867188 216.262695312 c 1
 585.0546875 70 67.55859375 149.423828125 0.0546875 237 c 1
 2.646484375 70.5048828125 l 1
 110.223632812 -11.1494140625 309.825195312 3.1083984375 392.775390625 0.5166015625 c 0
 680.513671875 3.1083984375 758.279296875 137.905273438 756.984375 254.553710938 c 0
 758.264648438 514.418945312 175.801757812 421.350585938 161.703125 549.868164062 c 1
 175.177734375 766.948242188 643.612304688 605.315429688 725.876953125 571.252929688 c 1
 727.172851562 714.673828125 l 1
 633.669921875 756.501953125 505.5390625 798.921875 365.557617188 798.921875 c 1
 159.547851562 790.961914062 10.2578125 702.381835938 4.1044921875 565.592773438 c 1
 3.9423828125 565.62109375 l 1
EndSplineSet
Validated: 41
EndChar

StartChar: F
Encoding: 70 70 59
Width: 665
Flags: W
HStem: 0 21G<0 142> 362 138<142 573> 656.164 144.836<142 572>
VStem: 0 142<0 362 500 656.164>
LayerCount: 2
Fore
SplineSet
142 0 m 5
 141 0 l 1
 0 0 l 1
 0 801 l 1
 142 801 l 1
 572 801 l 1
 573 655.611328125 l 1
 142 656.1640625 l 1
 142 500 l 1
 573 500 l 1
 573 361.447265625 l 1
 142 362 l 1
 142 0 l 5
573 500 m 1025
EndSplineSet
Validated: 1
EndChar

StartChar: T
Encoding: 84 84 60
Width: 660
Flags: W
HStem: 0 21G<223 368> 669 132<0 223 366.285 559>
VStem: 223 145<0 669>
LayerCount: 2
Fore
SplineSet
368 0 m 1
 223 0 l 1
 223 669 l 5
 0 669 l 5
 0 801 l 1
 559 801 l 1
 559 669 l 5
 366.28515625 669 l 5
 368 0 l 1
EndSplineSet
Validated: 1
EndChar

StartChar: L
Encoding: 76 76 61
Width: 521
Flags: W
LayerCount: 2
Fore
SplineSet
0 0 m 5
 144.333007812 0 288.666992188 0 433 0 c 5
 433 136 l 5
 144.700195312 136 l 5
 141 802 l 5
 1 801 l 5
 0 0 l 5
EndSplineSet
Validated: 9
EndChar

StartChar: P
Encoding: 80 80 62
Width: 666
Flags: W
HStem: 0 21G<0.357422 142.357> 388 124.896<142.357 392.121> 668.061 131.939<142.357 390.116>
VStem: 0.357422 142<0 388 512.896 668.061 800 801>
LayerCount: 2
Fore
SplineSet
0.357421875 801 m 1
 142.357421875 801 l 1
 142.357421875 800 l 1
 320.357421875 800 l 2
 642.357421875 798 653.357421875 393 320.357421875 388 c 1
 142.357421875 388 l 1
 142.357421875 0 l 1
 0.357421875 0 l 1
 0.357421875 801 l 1
142.357421875 512.896484375 m 1
 320.971679688 512.423828125 l 2
 473.385742188 514.711914062 468.3515625 666.672851562 320.971679688 667.587890625 c 2
 142.357421875 668.060546875 l 1
 142.357421875 512.896484375 l 1
EndSplineSet
Validated: 33
EndChar

StartChar: V
Encoding: 86 86 63
Width: 864
Flags: W
LayerCount: 2
Fore
SplineSet
0 800 m 29
 320 0 l 29
 498 0 l 29
 766 800 l 29
 601 800 l 29
 406 163 l 29
 164 800 l 29
 0 800 l 29
EndSplineSet
Validated: 9
EndChar

StartChar: D
Encoding: 68 68 64
Width: 745
Flags: W
HStem: 0 137.896<143.524 377.626> 655.061 145.939<141.524 364.381>
VStem: -0.475586 144<137.896 655.061>
LayerCount: 2
Fore
SplineSet
-0.4755859375 801 m 1
 103.747070312 801.555664062 218.088867188 799.548828125 322.524414062 800 c 0
 785.524414062 802 717.524414062 0 324.524414062 0 c 1
 195.857421875 0 128.19140625 0 -0.4755859375 0 c 1
 -0.4755859375 801 l 1
143.524414062 137.896484375 m 1
 307.138671875 137.423828125 l 2
 553.51953125 136.711914062 545.524414062 653.893554688 305.138671875 654.587890625 c 2
 141.524414062 655.060546875 l 1
 143.524414062 137.896484375 l 1
EndSplineSet
Validated: 33
EndChar

StartChar: C
Encoding: 67 67 65
Width: 730
Flags: W
VStem: 0 149.1<288.501 491.739>
LayerCount: 2
Fore
SplineSet
639 568 m 5
 605.00390625 594.002929688 453 654 359.059570312 639.66015625 c 4
 244.387695312 622.155273438 149.099609375 519 149.099609375 390.240234375 c 4
 149.099609375 261.48046875 243.422851562 138.911132812 359.059570312 148.080078125 c 4
 522 161 607.00390625 205.0625 641 231.380859375 c 5
 641 54 l 5
 604.302734375 40.09375 521 8 377 0 c 4
 177.307617188 -11.09375 0 180 0 402 c 4
 0 624 182.260742188 789.032226562 384 801 c 4
 502 808 602.302734375 781.099609375 639 767.393554688 c 5
 639 568 l 5
639 568.000976562 m 1029
639 767.393554688 m 1029
EndSplineSet
Validated: 33
EndChar

StartChar: J
Encoding: 74 74 66
Width: 373
Flags: W
HStem: 9 134<0 129.563>
VStem: 140.867 145.133<156.097 165 165.029 686>
LayerCount: 2
Fore
SplineSet
0 800 m 1
 0 686 l 1
 138.517006803 686 l 1
 140.8671875 184.8203125 l 1
 134.728515625 141.94140625 83.982421875 131.903320312 0 143 c 1
 0 9 l 1
 125 3 294.512695312 -28.4228515625 286 165 c 1
 285.799478147 165.029041096 l 1
 281.861678005 686 l 1
 282 686 l 1
 282 800 l 1
 281 800 l 1
 138 800 l 1
 0 800 l 1
EndSplineSet
Validated: 41
EndChar

StartChar: K
Encoding: 75 75 67
Width: 759
Flags: W
HStem: 0 21G<0 145 534.347 722> 780 20G<0 143.135 475.92 698>
VStem: 0 143.806<0 297.302 479.165 800>
LayerCount: 2
Fore
SplineSet
145 0 m 1
 0 0 l 1
 0 800 l 1
 143 800 l 1
 143.26912009 693.055452566 143.537920349 586.1105853 143.805939077 479.164936505 c 1
 498 800 l 1
 698 800 l 1
 336 445 l 1
 722 0 l 1
 552 0 l 1
 221 375 l 1
 144.260870996 297.301631883 l 1
 144.508265537 198.202106129 144.754764319 99.1016846151 145 0 c 1
EndSplineSet
Validated: 1
EndChar

StartChar: Q
Encoding: 81 81 68
Width: 848
Flags: W
HStem: 49 138.422<262.872 481.628> 645.66 155.34<278.77 437.968>
VStem: 0 149.1<294.701 494.116> 570.02 153.98<311.757 501.763>
LayerCount: 2
Fore
SplineSet
347.420898438 187.421875 m 0
 236.427734375 194.556640625 149.099609375 265.44140625 149.099609375 390.240234375 c 0
 149.099609375 519 243.059570312 645.66015625 359.059570312 645.66015625 c 0
 475.059570312 645.66015625 570.01953125 526 570.01953125 397.240234375 c 0
 570.01953125 371.4140625 575.27734375 347.458984375 562.958984375 310.53125 c 1
 505.674804688 350.03125 449.859375 382.33203125 407 402 c 1
 334 270 l 1
 334 270 424.405273438 238.428710938 483.141601562 200.137695312 c 1
 451.043945312 178.024414062 407.196289062 186.846679688 347.420898438 187.421875 c 0
724 402 m 0
 724 624 562 801 362 801 c 0
 162 801 0 624 0 402 c 0
 0 180 162 49 362 49 c 0
 462.811523438 49 541.79034472 57.092931046 599.901301535 103.571972473 c 1
 655.46809197 54.5837420502 679.187738187 -2.85532016595 662 -27 c 0
 620 -86 509.361328125 -39.8330078125 329 -15 c 1
 208 8 95.0654296875 -20.2666015625 66 -47 c 1
 66 -193 l 1
 147.140625 -126.66015625 230 -139 437 -176 c 1
 897 -261 844.064453125 112.538085938 681.384765625 211.430664062 c 1
 713.359375 269.9375 724 324.642229364 724 402 c 0
EndSplineSet
Validated: 41
EndChar

StartChar: W
Encoding: 87 87 69
Width: 1491
Flags: W
LayerCount: 2
Fore
SplineSet
0 800 m 5
 320 0 l 5
 498 0 l 5
 690.33984375 574.149414062 l 5
 920 0 l 5
 1098 0 l 5
 1366 800 l 5
 1201 800 l 5
 1006 163 l 5
 765.0625 797.202148438 l 5
 766 800 l 5
 764 800 l 5
 601 800 l 5
 600 800 l 5
 600.56640625 798.583984375 l 5
 406 163 l 5
 164 800 l 5
 0 800 l 5
EndSplineSet
Validated: 9
EndChar

StartChar: X
Encoding: 88 88 70
Width: 866
Flags: W
LayerCount: 2
Fore
SplineSet
1 0 m 1
 161 0 l 1
 386.760742188 293.52734375 l 1
 617 0 l 1
 773 0 l 1
 470.9921875 403.294921875 l 1
 766 800 l 1
 601 800 l 1
 384.126953125 515.834960938 l 1
 164 800 l 1
 0 800 l 1
 293.697265625 404.9296875 l 5
 1 0 l 1
EndSplineSet
Validated: 9
EndChar

StartChar: Z
Encoding: 90 90 71
Width: 842
Flags: W
LayerCount: 2
Fore
SplineSet
0 800 m 25
 0 651 l 1
 572 651 l 25
 0 138.5 l 1
 0 0 l 25
 755 -1 l 1
 755 137.5 l 25
 219 138.5 l 1
 760 654 l 25
 760 802 l 1
 0 800 l 25
EndSplineSet
Validated: 9
EndChar

StartChar: grave
Encoding: 96 96 72
Width: 368
Flags: W
HStem: 660 140
VStem: 0 268
LayerCount: 2
Fore
SplineSet
0 800 m 29
 194 800 l 29
 268 660 l 29
 214 660 l 29
 0 800 l 29
EndSplineSet
Validated: 1
EndChar

StartChar: asterisk
Encoding: 42 42 73
Width: 326
Flags: W
LayerCount: 2
Fore
SplineSet
75 800 m 1
 104 712 l 1
 12 757 l 1
 0 697 l 1
 96 684 l 1
 16 611 l 1
 71 583 l 1
 114 660 l 1
 157 581 l 1
 210 614 l 1
 129 684 l 1
 226 692 l 1
 209 752 l 1
 123 711 l 1
 144 800 l 1
 75 800 l 1
EndSplineSet
Validated: 9
EndChar

StartChar: plus
Encoding: 43 43 74
Width: 614
Flags: W
HStem: 388 136<2 184.771 323.281 514>
VStem: 184 138<182 388 524 716>
LayerCount: 2
Fore
SplineSet
186 716 m 5
 324 716 l 5
 323.28125 524 l 5
 514 524 l 5
 514 388 l 5
 322.771484375 388 l 5
 322 182 l 5
 184 182 l 5
 184.771484375 388 l 5
 2 388 l 5
 2 524 l 5
 185.28125 524 l 5
 186 716 l 5
EndSplineSet
Validated: 1
EndChar

StartChar: hyphen
Encoding: 45 45 75
Width: 612
Flags: W
HStem: 380 136<-2 510>
LayerCount: 2
Fore
SplineSet
-2 516 m 5
 510 516 l 5
 510 380 l 5
 -2 380 l 5
 -2 516 l 5
EndSplineSet
Validated: 1
EndChar

StartChar: numbersign
Encoding: 35 35 76
Width: 1005
Flags: W
HStem: 0 21G<65.292 234.077 369.292 532.077> 216 126<47.2266 138.573 343.392 442.573 645.392 766.15> 484 123<115 224.407 433.226 532.407 731.226 836.924> 780 20G<329.919 498.704 633.919 796.704>
LayerCount: 2
Fore
SplineSet
336.704101562 800 m 1
 498.704101562 800 l 1
 433.225930176 607 l 1
 575.225930176 607 l 1
 640.704101562 800 l 1
 796.704101562 800 l 1
 731.225930176 607 l 1
 893 607 l 1
 836.923828125 484 l 1
 684.407226562 484 l 1
 645.391601562 342 l 1
 813.2265625 342 l 1
 766.150390625 216 l 1
 598.573261719 216 l 1
 525.291992188 0 l 1
 369.291992188 0 l 1
 442.573261719 216 l 1
 300.573261719 216 l 1
 227.291992188 0 l 1
 65.2919921875 0 l 1
 138.573261719 216 l 1
 0.150390625 216 l 1
 47.2265625 342 l 5
 185.391601562 342 l 1
 224.407226562 484 l 1
 70.923828125 484 l 1
 115 607 l 1
 271.225930176 607 l 1
 336.704101562 800 l 1
532.407226562 488 m 1
 382.407226562 488 l 1
 343.391601562 338 l 1
 493.391601562 338 l 1
 532.407226562 488 l 1
EndSplineSet
Validated: 1
EndChar

StartChar: dollar
Encoding: 36 36 77
Width: 698
Flags: W
HStem: 138.643 100.322<53.7153 239.025 358.025 416.256> 323.26 103.165<140.545 239.025 358.025 455.903> 508.374 117.903<162.273 239.025 358.025 474.384>
LayerCount: 2
Fore
SplineSet
3.0966796875 486.387695312 m 1
 -2.6337890625 351.247070312 119.696289062 326.873046875 239.025390625 323.259765625 c 1
 239.025390625 238.96484375 l 1
 134.260742188 240.334960938 26.091796875 257.513671875 0.025390625 283.891601562 c 1
 2.072265625 181.296875 l 1
 62.259765625 145.663085938 162.420898438 139.671875 239.025390625 138.642578125 c 1
 239.025390625 16 l 1
 358.025390625 16 l 1
 358.025390625 139.409179688 l 1
 551.078125 150.142578125 597.99609375 227.331054688 598 294.708007812 c 0
 598.006835938 419.029296875 476.421875 434.625976562 358.025390625 432.01953125 c 1
 358.025390625 504.658203125 l 1
 450.546875 494.71875 543.469726562 472.532226562 573.424804688 462.857421875 c 1
 574.448242188 578.233398438 l 1
 514.856445312 599.026367188 442.016601562 620.057617188 358.025390625 627.41015625 c 1
 358.025390625 732 l 1
 239.025390625 732 l 1
 239.025390625 626.27734375 l 1
 104.80078125 611.731445312 7.5029296875 560.557617188 3.224609375 486.370117188 c 1
 3.0966796875 486.387695312 l 1
358.025390625 323.237304688 m 1
 416.907226562 323.158203125 459.127929688 319.387695312 458.74609375 294.112304688 c 0
 456.09375 269.024414062 414.893554688 253.372070312 358.025390625 245.387695312 c 1
 358.025390625 323.237304688 l 1
239.025390625 426.424804688 m 1
 181.658203125 424.055664062 139.719726562 426.196289062 136.416992188 449.680664062 c 1
 139.9453125 487.479492188 182.001953125 503.9765625 239.025390625 508.374023438 c 1
 239.025390625 426.424804688 l 1
EndSplineSet
Validated: 41
EndChar

StartChar: percent
Encoding: 37 37 78
Width: 728
Flags: W
HStem: 0.5 105<461.95 521.725> 169.5 107<461.95 521.725> 506 105<109.95 169.725> 675 107<109.95 169.725> 780 20G<436.8 598>
VStem: 0 108<612.775 672.55> 172 104<612.775 672.55> 352 108<107.275 167.05> 524 104<107.275 167.05>
LayerCount: 2
Fore
SplineSet
460 137.5 m 0xe780
 460 119.5 474 105.5 492 105.5 c 0
 510 105.5 524 119.5 524 137.5 c 0
 524 155.5 510 169.5 492 169.5 c 0
 474 169.5 460 155.5 460 137.5 c 0xe780
352 138.5 m 0
 352 214.5 414 276.5 490 276.5 c 0
 566 276.5 628 214.5 628 138.5 c 0
 628 62.5 566 0.5 490 0.5 c 0
 414 0.5 352 62.5 352 138.5 c 0
108 643 m 4
 108 625 122 611 140 611 c 4
 158 611 172 625 172 643 c 4
 172 661 158 675 140 675 c 4xf780
 122 675 108 661 108 643 c 4
448 800 m 25xef80
 598 799 l 25
 165 0 l 25
 0 0 l 25
 448 800 l 25xef80
0 644 m 4
 0 720 62 782 138 782 c 4xf780
 214 782 276 720 276 644 c 4
 276 568 214 506 138 506 c 4
 62 506 0 568 0 644 c 4
EndSplineSet
Validated: 1
EndChar

StartChar: ampersand
Encoding: 38 38 79
Width: 810
Flags: W
VStem: 1 147<174.448 303.63> 53 153<525.777 643.293> 438 145<564.628 648.536>
LayerCount: 2
Fore
SplineSet
703 0 m 1xa0
 703 138.5 l 1
 678.290721028 154.45039277 645.692867516 176.334217682 608.97469456 201.97892833 c 1
 644.672516501 262.351947096 674.836258251 332.266409057 705 406 c 1
 557 406 l 1
 534.632594773 358.594454594 516.723205288 318.098833588 496.239744892 283.508553172 c 1
 444.521079228 322.26441963 391.956421399 363.696670085 346.028440629 403.491253148 c 1
 461.365730691 437.241356251 584.064350427 464.213598293 583 593 c 0
 582 737 495 791 331 800 c 1
 175 802 52 738 53 578 c 0x60
 52.7675291403 546.848904799 78.96193888 501.754792841 121.356659818 450.230549261 c 1
 53.1174353893 409.120310803 1 346.774238513 1 242 c 1
 -11.482421875 104.666015625 64 0 288 0 c 0
 392.765700772 0 468.806477607 36.3458221229 528.820165046 95.9077326956 c 1
 598.984843037 48.4886591641 661.517221188 13.2337699278 703 0 c 1xa0
215.231543345 349.955500815 m 1
 272.177300719 294.793126552 338.561310361 237.89675114 404.908881273 186.226896958 c 1
 374.68352755 167.273438504 336.808518501 151.735132571 287 139 c 1
 208 128 151 163 148 225 c 0xa0
 148.492397682 284.949417818 175.230600806 323.01722879 215.231543345 349.955500815 c 1
244.379128346 502.889947615 m 1
 219.837138092 532.038752112 205.394158075 557.026689571 206 575 c 0x60
 218 755 436.51953125 706.680664062 438 598 c 0
 436.162001847 549.982298262 343.745018524 534.691269488 244.379128346 502.889947615 c 1
EndSplineSet
Validated: 41
EndChar

StartChar: colon
Encoding: 58 58 80
Width: 246
Flags: W
HStem: 172 144<23 125> 484 144<21 123>
VStem: 2 144<193 295 506.233 605.767>
LayerCount: 2
Fore
SplineSet
2 244 m 4
 2 284 34 316 74 316 c 4
 114 316 146 284 146 244 c 4
 146 204 114 172 74 172 c 4
 34 172 2 204 2 244 c 4
0 556 m 4
 0 596 32 628 72 628 c 4
 112 628 144 596 144 556 c 4
 144 516 112 484 72 484 c 4
 32 484 0 516 0 556 c 4
EndSplineSet
Validated: 1
EndChar

StartChar: semicolon
Encoding: 59 59 81
Width: 246
Flags: W
HStem: 82.5 50<2 59.012> 169 139<23 75.0078> 483 144<21 123>
VStem: 2 144<192.236 287 505.233 604.767>
LayerCount: 2
Fore
SplineSet
2 236 m 4
 2 276 34 308 74 308 c 4
 114 308 146 276 146 236 c 4
 146 235.116210938 145.985351562 234.241210938 145.956054688 233.373046875 c 4
 144.283203125 165.013671875 100.735351562 97.310546875 2 82.5 c 5
 2 132.5 l 5
 32.0634765625 134.294921875 57.8984375 148.466796875 75.0078125 169.005859375 c 5
 74.671875 169.001953125 74.3359375 169 74 169 c 4
 34 169 2 196 2 236 c 4
0 555 m 4
 0 595 32 627 72 627 c 4
 112 627 144 595 144 555 c 4
 144 515 112 483 72 483 c 4
 32 483 0 515 0 555 c 4
EndSplineSet
Validated: 1
EndChar

StartChar: underscore
Encoding: 95 95 82
Width: 962
Flags: W
HStem: -26 94<0 862>
LayerCount: 2
Fore
SplineSet
0 68 m 1
 862 68 l 1
 862 -26 l 1
 0 -26 l 1
 0 68 l 1
EndSplineSet
Validated: 1
EndChar

StartChar: asciitilde
Encoding: 126 126 83
Width: 501
Flags: W
LayerCount: 2
Fore
SplineSet
0.0400390625 461 m 17
 52.7646484375 508.544921875 117.717773438 510.483398438 196.459960938 461 c 1
 266.134765625 420.6328125 331.309570312 411.44140625 388 461 c 9
 388 316 l 17
 330.958007812 259.611328125 266.23046875 277.88671875 199.509765625 316 c 1
 135.6484375 357.280273438 70.3564453125 380.365234375 0.0400390625 317.299804688 c 9
 0.0400390625 461 l 17
EndSplineSet
Validated: 33
EndChar

StartChar: agrave
Encoding: 224 224 84
Width: 695
Flags: W
HStem: -0.145508 134.499<154.968 414.036> 265.27 128.875<187.841 389.79> 780 20G<154 358.571>
VStem: -0.398438 135.229<158.601 224.713> 465 118<355.106 432.051>
LayerCount: 2
Fore
SplineSet
154 800 m 29
 348 800 l 29
 422 660 l 29
 368 660 l 29
 154 800 l 29
54 557 m 1
 351.083007812 702.564453125 582.750976562 606.780273438 583 453 c 1
 595 1 595 0 595 0 c 2
 472 0 l 1
 474.671875 73.9013671875 472 0 474.671875 73.9013671875 c 1
 439 19 391.67578125 -0.1455078125 279.53515625 -0.1455078125 c 0
 102.174804688 -0.1455078125 -0.3984375 64.3017578125 -0.3984375 186.091796875 c 0
 -0.3984375 307.881835938 102.174804688 394.14453125 279.53515625 394.14453125 c 0
 343.028320312 394.14453125 423.508789062 373.126953125 465 353 c 1
 464.173828125 459.086914062 388 558 54 438 c 1
 54 557 l 1
134.830078125 192 m 0
 135.900390625 144.58984375 196.291992188 134.353515625 277.139648438 134.353515625 c 0
 357.985351562 134.353515625 440.849609375 142.434570312 437.639648438 196.309570312 c 0
 434.689453125 245.833007812 330.639648438 264.192382812 280.349609375 265.26953125 c 0
 226.8515625 266.416015625 133.833007812 236.1796875 134.830078125 192 c 0
EndSplineSet
Validated: 33
EndChar

StartChar: eacute
Encoding: 233 233 85
Width: 708
Flags: W
HStem: -1 137<229.327 505.892> 469.963 137.037<218.819 383.068>
LayerCount: 2
Fore
SplineSet
476 800 m 29
 282 800 l 29
 208 660 l 29
 262 660 l 29
 476 800 l 29
605.279296875 248.639648438 m 1
 607.083007812 263.493164062 608 279.772460938 608 295.411132812 c 0
 608 468.565429688 470.350585938 607 298.329101562 607 c 0
 123.012695312 607 0.3154296875 463.072265625 0.3154296875 293.879882812 c 0
 0.3154296875 125.256835938 157.3515625 1.685546875 294.329101562 -1 c 0
 498.329101562 -5 528.329101562 27 565.329101562 54 c 1
 563.329101562 175 l 1
 481.329101562 148 427.329101562 133 325.329101562 136 c 0
 242.872070312 138.424804688 144.283203125 181.7109375 128.686523438 249 c 1
 584.240234375 249 l 1
 605.279296875 248.639648438 l 1
146.76953125 369 m 1
 167.084960938 427.875 229.111328125 469.962890625 299.420898438 469.962890625 c 0
 370.005859375 469.962890625 434.381835938 427.995117188 455.775390625 369 c 1
 146.76953125 369 l 1
EndSplineSet
Validated: 41
EndChar

StartChar: egrave
Encoding: 232 232 86
Width: 708
Flags: W
HStem: -1 137<229.327 505.892> 469.963 137.037<218.819 383.068> 780 20G<154 358.571>
LayerCount: 2
Fore
SplineSet
154 800 m 29
 348 800 l 29
 422 660 l 29
 368 660 l 29
 154 800 l 29
605.279296875 248.639648438 m 1
 607.083007812 263.493164062 608 279.772460938 608 295.411132812 c 0
 608 468.565429688 470.350585938 607 298.329101562 607 c 0
 123.012695312 607 0.3154296875 463.072265625 0.3154296875 293.879882812 c 0
 0.3154296875 125.256835938 157.3515625 1.685546875 294.329101562 -1 c 0
 498.329101562 -5 528.329101562 27 565.329101562 54 c 1
 563.329101562 175 l 1
 481.329101562 148 427.329101562 133 325.329101562 136 c 0
 242.872070312 138.424804688 144.283203125 181.7109375 128.686523438 249 c 1
 584.240234375 249 l 1
 605.279296875 248.639648438 l 1
146.76953125 369 m 1
 167.084960938 427.875 229.111328125 469.962890625 299.420898438 469.962890625 c 0
 370.005859375 469.962890625 434.381835938 427.995117188 455.775390625 369 c 1
 146.76953125 369 l 1
EndSplineSet
Validated: 41
EndChar

StartChar: Ecircumflex
Encoding: 202 202 87
Width: 665
Flags: W
LayerCount: 2
Fore
SplineSet
71 927 m 5
 71 849 l 5
 295 947 l 5
 528 847 l 5
 530 924 l 5
 345 1029 l 5
 239 1029 l 5
 71 927 l 5
573 137.4453125 m 17
 142 137.998046875 l 1
 142 362 l 1
 573 361.447265625 l 1
 573 500 l 1
 142 500 l 1
 142 656.1640625 l 1
 573 655.611328125 l 1
 572 801 l 1
 142 801 l 1
 0 801 l 1
 0 0 l 1
 141 0 l 1
 142 0 l 1
 573 0 l 1
 573 137.4453125 l 17
573 500 m 1025
573 0 m 1025
573 137.4453125 m 1025
EndSplineSet
Validated: 9
EndChar

StartChar: ecircumflex
Encoding: 234 234 88
Width: 708
Flags: W
HStem: -1 137<229.327 505.892> 469.963 139.037<218.819 383.068>
LayerCount: 2
Fore
SplineSet
81 698 m 5
 81 607 l 5
 305 709 l 5
 538 605 l 5
 540 695 l 5
 355 800 l 5
 249 800 l 5
 81 698 l 5
605.279296875 248.639648438 m 1
 607.083007812 263.493164062 608 279.772460938 608 295.411132812 c 0
 608 468.565429688 470.350585938 609 298.329101562 609 c 4
 123.012695312 609 0.3154296875 463.072265625 0.3154296875 293.879882812 c 0
 0.3154296875 125.256835938 157.3515625 1.685546875 294.329101562 -1 c 0
 498.329101562 -5 528.329101562 27 565.329101562 54 c 1
 563.329101562 175 l 1
 481.329101562 148 427.329101562 133 325.329101562 136 c 0
 242.872070312 138.424804688 144.283203125 181.7109375 128.686523438 249 c 1
 584.240234375 249 l 1
 605.279296875 248.639648438 l 1
146.76953125 369 m 1
 167.084960938 427.875 229.111328125 469.962890625 299.420898438 469.962890625 c 0
 370.005859375 469.962890625 434.381835938 427.995117188 455.775390625 369 c 1
 146.76953125 369 l 1
EndSplineSet
Validated: 41
EndChar

StartChar: edieresis
Encoding: 235 235 89
Width: 708
Flags: W
HStem: -1 137<229.327 505.892> 469.963 137.037<218.819 383.068> 660 124<153.2 246.8 387.2 480.8>
VStem: 138 124<675.2 768.8> 372 124<675.2 768.8>
LayerCount: 2
Fore
SplineSet
372 722 m 4
 372 756 400 784 434 784 c 4
 468 784 496 756 496 722 c 4
 496 688 468 660 434 660 c 4
 400 660 372 688 372 722 c 4
138 722 m 4
 138 756 166 784 200 784 c 4
 234 784 262 756 262 722 c 4
 262 688 234 660 200 660 c 4
 166 660 138 688 138 722 c 4
605.279296875 248.639648438 m 1
 607.083007812 263.493164062 608 279.772460938 608 295.411132812 c 0
 608 468.565429688 470.350585938 607 298.329101562 607 c 0
 123.012695312 607 0.3154296875 463.072265625 0.3154296875 293.879882812 c 0
 0.3154296875 125.256835938 157.3515625 1.685546875 294.329101562 -1 c 0
 498.329101562 -5 528.329101562 27 565.329101562 54 c 1
 563.329101562 175 l 1
 481.329101562 148 427.329101562 133 325.329101562 136 c 0
 242.872070312 138.424804688 144.283203125 181.7109375 128.686523438 249 c 1
 584.240234375 249 l 1
 605.279296875 248.639648438 l 1
146.76953125 369 m 1
 167.084960938 427.875 229.111328125 469.962890625 299.420898438 469.962890625 c 0
 370.005859375 469.962890625 434.381835938 427.995117188 455.775390625 369 c 1
 146.76953125 369 l 1
EndSplineSet
Validated: 41
EndChar

StartChar: igrave
Encoding: 236 236 90
Width: 260
Flags: W
HStem: 0 21G<-0.439453 129.561> 588 20G<-0.439453 129.561>
VStem: -0.439453 130<0 608>
LayerCount: 2
Fore
SplineSet
-88 823 m 29
 106 823 l 29
 180 684 l 29
 126 684 l 29
 -88 823 l 29
-0.439453125 608 m 1
 129.560546875 608 l 1
 129.560546875 0 l 1
 -0.439453125 0 l 1
 -0.439453125 608 l 1
EndSplineSet
Validated: 1
EndChar

StartChar: iacute
Encoding: 237 237 91
Width: 238
Flags: W
HStem: 0 21G<-0.439453 129.561> 588 20G<-0.439453 129.561>
VStem: -0.439453 130<0 608>
LayerCount: 2
Fore
SplineSet
232 826 m 25
 38 826 l 25
 -36 686 l 25
 18 686 l 25
 232 826 l 25
-0.439453125 608 m 1
 129.560546875 608 l 1
 129.560546875 0 l 1
 -0.439453125 0 l 1
 -0.439453125 608 l 1
EndSplineSet
Validated: 9
EndChar

StartChar: icircumflex
Encoding: 238 238 92
Width: 235
Flags: W
HStem: 0 21G<0.560547 130.561> 588 20G<0.560547 130.561>
VStem: 0.560547 130<0 608>
LayerCount: 2
Fore
SplineSet
-168 739 m 1
 -168 648 l 1
 56 750 l 1
 289 646 l 1
 291 736 l 1
 106 841 l 1
 0 841 l 1
 -168 739 l 1
0.560546875 608 m 1
 130.560546875 608 l 1
 130.560546875 0 l 1
 0.560546875 0 l 1
 0.560546875 608 l 1
EndSplineSet
Validated: 9
EndChar

StartChar: idieresis
Encoding: 239 239 93
Width: 238
Flags: W
HStem: 0 21G<-0.439453 129.561> 588 20G<-0.439453 129.561> 682 132.24<-83.8454 10.9656 109.611 211.269>
VStem: -104.88 136.88<703.34 798.66> -0.439453 130<0 608> 92 136.88<700.46 795.78>
LayerCount: 2
Fore
SplineSet
92 748.120117188 m 0xe4
 92 784.080078125 122.16015625 814.240234375 160.440429688 814.240234375 c 0
 198.719726562 814.240234375 228.879882812 784.080078125 228.879882812 748.120117188 c 0
 228.879882812 712.16015625 198.719726562 682 160.440429688 682 c 0
 122.16015625 682 92 712.16015625 92 748.120117188 c 0xe4
-104.879882812 751 m 0xf0
 -104.879882812 786.959960938 -74.7197265625 817.120117188 -36.439453125 817.120117188 c 0
 1.83984375 817.120117188 32 786.959960938 32 751 c 0
 32 715.040039062 1.83984375 684.879882812 -36.439453125 684.879882812 c 0
 -74.7197265625 684.879882812 -104.879882812 715.040039062 -104.879882812 751 c 0xf0
-0.439453125 608 m 1xe8
 129.560546875 608 l 1
 129.560546875 0 l 1
 -0.439453125 0 l 1
 -0.439453125 608 l 1xe8
EndSplineSet
Validated: 1
EndChar

StartChar: aacute
Encoding: 225 225 94
Width: 695
Flags: W
HStem: -0.145508 134.499<154.968 414.036> 265.27 128.875<187.841 389.79>
VStem: -0.398438 135.229<158.601 224.713> 465 118<355.106 432.051>
LayerCount: 2
Fore
SplineSet
476 800 m 29
 282 800 l 29
 208 660 l 29
 262 660 l 29
 476 800 l 29
54 557 m 1
 351.083007812 702.564453125 582.750976562 606.780273438 583 453 c 1
 595 1 595 0 595 0 c 2
 472 0 l 1
 474.671875 73.9013671875 472 0 474.671875 73.9013671875 c 1
 439 19 391.67578125 -0.1455078125 279.53515625 -0.1455078125 c 0
 102.174804688 -0.1455078125 -0.3984375 64.3017578125 -0.3984375 186.091796875 c 0
 -0.3984375 307.881835938 102.174804688 394.14453125 279.53515625 394.14453125 c 0
 343.028320312 394.14453125 423.508789062 373.126953125 465 353 c 1
 464.173828125 459.086914062 388 558 54 438 c 1
 54 557 l 1
134.830078125 192 m 0
 135.900390625 144.58984375 196.291992188 134.353515625 277.139648438 134.353515625 c 0
 357.985351562 134.353515625 440.849609375 142.434570312 437.639648438 196.309570312 c 0
 434.689453125 245.833007812 330.639648438 264.192382812 280.349609375 265.26953125 c 0
 226.8515625 266.416015625 133.833007812 236.1796875 134.830078125 192 c 0
EndSplineSet
Validated: 41
EndChar

StartChar: acircumflex
Encoding: 226 226 95
Width: 695
Flags: W
HStem: -0.145508 134.499<154.968 414.036> 265.27 128.875<187.841 389.79>
VStem: -0.398438 135.229<158.601 224.713> 465 118<355.106 432.051>
LayerCount: 2
Fore
SplineSet
81 698 m 5
 81 620 l 5
 305 718 l 5
 538 618 l 5
 540 695 l 5
 355 800 l 5
 249 800 l 5
 81 698 l 5
54 546 m 1
 351.083007812 691.564453125 582.750976562 606.780273438 583 453 c 1
 595 1 595 0 595 0 c 2
 472 0 l 1
 474.671875 73.9013671875 472 0 474.671875 73.9013671875 c 1
 439 19 391.67578125 -0.1455078125 279.53515625 -0.1455078125 c 0
 102.174804688 -0.1455078125 -0.3984375 64.3017578125 -0.3984375 186.091796875 c 0
 -0.3984375 307.881835938 102.174804688 394.14453125 279.53515625 394.14453125 c 0
 343.028320312 394.14453125 423.508789062 373.126953125 465 353 c 1
 464.173828125 459.086914062 388 558 54 438 c 1
 54 546 l 1
134.830078125 192 m 0
 135.900390625 144.58984375 196.291992188 134.353515625 277.139648438 134.353515625 c 0
 357.985351562 134.353515625 440.849609375 142.434570312 437.639648438 196.309570312 c 0
 434.689453125 245.833007812 330.639648438 264.192382812 280.349609375 265.26953125 c 0
 226.8515625 266.416015625 133.833007812 236.1796875 134.830078125 192 c 0
EndSplineSet
Validated: 41
EndChar

StartChar: atilde
Encoding: 227 227 96
Width: 695
Flags: W
HStem: -0.145508 134.499<154.968 414.036> 265.27 128.875<187.841 389.79>
VStem: -0.398438 135.229<158.601 224.713> 465 118<355.106 432.051>
LayerCount: 2
Fore
SplineSet
123.580078125 790 m 21
 176.3046875 837.544921875 241.2578125 839.483398438 320 790 c 5
 389.674804688 749.6328125 454.849609375 740.44140625 511.540039062 790 c 13
 511.540039062 689 l 21
 454.498046875 632.611328125 389.770507812 650.88671875 323.049804688 689 c 5
 259.188476562 730.280273438 193.896484375 753.365234375 123.580078125 690.299804688 c 13
 123.580078125 790 l 21
54 557 m 1
 351.083007812 702.564453125 582.750976562 606.780273438 583 453 c 1
 595 1 595 0 595 0 c 2
 472 0 l 1
 474.671875 73.9013671875 472 0 474.671875 73.9013671875 c 1
 439 19 391.67578125 -0.1455078125 279.53515625 -0.1455078125 c 0
 102.174804688 -0.1455078125 -0.3984375 64.3017578125 -0.3984375 186.091796875 c 0
 -0.3984375 307.881835938 102.174804688 394.14453125 279.53515625 394.14453125 c 0
 343.028320312 394.14453125 423.508789062 373.126953125 465 353 c 1
 464.173828125 459.086914062 388 558 54 438 c 1
 54 557 l 1
134.830078125 192 m 0
 135.900390625 144.58984375 196.291992188 134.353515625 277.139648438 134.353515625 c 0
 357.985351562 134.353515625 440.849609375 142.434570312 437.639648438 196.309570312 c 0
 434.689453125 245.833007812 330.639648438 264.192382812 280.349609375 265.26953125 c 0
 226.8515625 266.416015625 133.833007812 236.1796875 134.830078125 192 c 0
EndSplineSet
Validated: 33
EndChar

StartChar: adieresis
Encoding: 228 228 97
Width: 695
Flags: W
HStem: -0.145508 134.499<154.968 414.036> 265.27 128.875<187.841 389.79> 660 124<153.2 246.8 387.2 480.8>
VStem: -0.398438 135.229<158.601 224.713> 138 124<675.2 768.8> 372 124<675.2 768.8> 465 118<355.106 432.051>
LayerCount: 2
Fore
SplineSet
372 722 m 4xfc
 372 756 400 784 434 784 c 4
 468 784 496 756 496 722 c 4
 496 688 468 660 434 660 c 4
 400 660 372 688 372 722 c 4xfc
138 722 m 4
 138 756 166 784 200 784 c 4
 234 784 262 756 262 722 c 4
 262 688 234 660 200 660 c 4
 166 660 138 688 138 722 c 4
54 557 m 1
 351.083007812 702.564453125 582.750976562 606.780273438 583 453 c 1
 595 1 595 0 595 0 c 2
 472 0 l 1
 474.671875 73.9013671875 472 0 474.671875 73.9013671875 c 1
 439 19 391.67578125 -0.1455078125 279.53515625 -0.1455078125 c 0
 102.174804688 -0.1455078125 -0.3984375 64.3017578125 -0.3984375 186.091796875 c 0
 -0.3984375 307.881835938 102.174804688 394.14453125 279.53515625 394.14453125 c 0
 343.028320312 394.14453125 423.508789062 373.126953125 465 353 c 1xfa
 464.173828125 459.086914062 388 558 54 438 c 1
 54 557 l 1
134.830078125 192 m 0
 135.900390625 144.58984375 196.291992188 134.353515625 277.139648438 134.353515625 c 0
 357.985351562 134.353515625 440.849609375 142.434570312 437.639648438 196.309570312 c 0
 434.689453125 245.833007812 330.639648438 264.192382812 280.349609375 265.26953125 c 0
 226.8515625 266.416015625 133.833007812 236.1796875 134.830078125 192 c 0
EndSplineSet
Validated: 33
EndChar

StartChar: aring
Encoding: 229 229 98
Width: 695
Flags: W
HStem: -0.145508 134.499<154.968 414.036> 265.27 128.875<187.841 389.79> 686.996 47.084<291.759 364.199> 816.148 52.3457<291.759 364.199>
VStem: -0.398438 135.229<158.601 224.713> 236.198 50.7676<739.704 811.121> 369.033 48.6631<739.704 811.121> 465 118<355.106 432.051>
LayerCount: 2
Fore
SplineSet
286.965820312 775.114257812 m 4
 286.965820312 752.033203125 304.916992188 734.080078125 328 734.080078125 c 4
 351.081054688 734.080078125 369.033203125 752.033203125 369.033203125 775.114257812 c 4
 369.033203125 798.1953125 351.081054688 816.1484375 328 816.1484375 c 4
 304.916992188 816.1484375 286.965820312 798.1953125 286.965820312 775.114257812 c 4
236.198242188 777.745117188 m 4
 236.198242188 827.721679688 276.969726562 868.494140625 326.947265625 868.494140625 c 4
 376.92578125 868.494140625 417.696289062 827.721679688 417.696289062 777.745117188 c 4
 417.696289062 727.766601562 376.92578125 686.99609375 326.947265625 686.99609375 c 4
 276.969726562 686.99609375 236.198242188 727.766601562 236.198242188 777.745117188 c 4
54 557 m 1
 351.083007812 702.564453125 582.750976562 606.780273438 583 453 c 1
 595 1 595 0 595 0 c 2
 472 0 l 1
 474.671875 73.9013671875 472 0 474.671875 73.9013671875 c 1
 439 19 391.67578125 -0.1455078125 279.53515625 -0.1455078125 c 0
 102.174804688 -0.1455078125 -0.3984375 64.3017578125 -0.3984375 186.091796875 c 0
 -0.3984375 307.881835938 102.174804688 394.14453125 279.53515625 394.14453125 c 0
 343.028320312 394.14453125 423.508789062 373.126953125 465 353 c 1
 464.173828125 459.086914062 388 558 54 438 c 1
 54 557 l 1
134.830078125 192 m 0
 135.900390625 144.58984375 196.291992188 134.353515625 277.139648438 134.353515625 c 0
 357.985351562 134.353515625 440.849609375 142.434570312 437.639648438 196.309570312 c 0
 434.689453125 245.833007812 330.639648438 264.192382812 280.349609375 265.26953125 c 0
 226.8515625 266.416015625 133.833007812 236.1796875 134.830078125 192 c 0
EndSplineSet
Validated: 33
EndChar

StartChar: ae
Encoding: 230 230 99
Width: 1178
Flags: W
HStem: -0.145508 134.499<155.7 362.38 700.987 972.488> 249.12 120<616.77 925.775> 265.27 114.73<184.695 460.099> 484.083 141.037<696.321 845.162>
VStem: -0.0830078 135.229<158.598 224.242>
LayerCount: 2
Fore
SplineSet
135.145507812 192 m 0xb8
 136.215820312 144.58984375 196.607421875 134.353515625 277.455078125 134.353515625 c 0
 358.30078125 134.353515625 458.65234375 204.0546875 460.315429688 258 c 1
 460.315429688 258 330.955078125 264.19140625 280.665039062 265.26953125 c 0
 227.166992188 266.416015625 134.1484375 236.1796875 135.145507812 192 c 0xb8
54.3154296875 557 m 1
 296.62890625 675.728515625 495.422851562 633.89453125 560.62109375 530.990234375 c 1
 612.725585938 588.110351562 684.513671875 625.120117188 768.329101562 625.120117188 c 0
 940.350585938 625.120117188 1078 468.685546875 1078 295.53125 c 0
 1078 279.892578125 1077.08300781 263.61328125 1075.27929688 248.759765625 c 1
 1054.24023438 249.120117188 l 1
 598.686523438 249.120117188 l 1xd8
 614.283203125 181.831054688 712.872070312 138.544921875 795.329101562 136.120117188 c 0
 897.329101562 133.120117188 951.329101562 148.120117188 1033.32910156 175.120117188 c 1
 1035.32910156 54.1201171875 l 1
 998.329101562 27.1201171875 968.329101562 -4.8798828125 764.329101562 -0.8798828125 c 0
 678.426757812 0.8046875 584.63671875 50.03125 526.634765625 128.096679688 c 1
 413.315429688 16 373.196289062 -0.0498046875 279.850585938 -0.1455078125 c 0
 102.490234375 -0.326171875 -0.0830078125 64.3017578125 -0.0830078125 186.091796875 c 0
 -0.0830078125 307.881835938 103.955078125 380 281.315429688 380 c 0
 344.80859375 380 420.315429688 376 464.315429688 372 c 1
 463.489257812 478.086914062 388.315429688 558 54.3154296875 438 c 1
 54.3154296875 557 l 1
616.76953125 369.120117188 m 1
 925.775390625 369.120117188 l 1
 904.381835938 428.115234375 840.005859375 484.083007812 769.420898438 484.083007812 c 0
 699.111328125 484.083007812 637.084960938 427.995117188 616.76953125 369.120117188 c 1
EndSplineSet
Validated: 33
EndChar

StartChar: ccedilla
Encoding: 231 231 100
Width: 650
Flags: W
HStem: 0.00585938 139.103<212.067 271.836 319.913 442.898> 475.963 139.037<201.807 442.509>
VStem: -0.0136719 129.014<219.734 401.902> 265 54<-29 0.00585938>
LayerCount: 2
Fore
SplineSet
503.276367188 28.4658203125 m 1025
265 -162 m 1
 266 -121 l 1
 420 -146 395 -36 265 -71 c 1
 265 0.005859375 l 2
 267.300848892 0.0312193136325 269.577674348 0.116587040329 271.83633415 0.249746241871 c 1
 269.573914011 0.163509792208 267.295173855 0.0821779274709 265 0.005859375 c 0
 95.5029296875 0.98828125 -0.013671875 126.916342609 -0.013671875 294.879882812 c 0
 -0.013671875 464.072265625 95.68359375 615 271 615 c 0
 468 615 512 568 543 544 c 1
 543 408 l 1
 543 408 452.943359375 480.612304688 272.091796875 475.962890625 c 0
 171.971679688 473.388671875 127 397 129 294 c 0
 130 220 193.48828125 143.078125 272.091796875 139.108398438 c 0
 435.842773438 130.837890625 533.435546875 201.329101562 550 207 c 1
 550 55 l 1
 517.952026687 40.2912333639 451.709138571 12.9569463643 319.913218989 2.96266461161 c 1
 319 -29 l 1
 479.876953125 -34.4306640625 422.709960938 -211.522460938 265 -162 c 1
EndSplineSet
Validated: 37
EndChar

StartChar: ntilde
Encoding: 241 241 101
Width: 677
Flags: W
LayerCount: 2
Fore
SplineSet
101.580078125 790 m 21
 154.3046875 837.544921875 219.2578125 839.483398438 298 790 c 5
 367.674804688 749.6328125 432.849609375 740.44140625 489.540039062 790 c 13
 489.540039062 689 l 21
 432.498046875 632.611328125 367.770507812 650.88671875 301.049804688 689 c 5
 237.188476562 730.280273438 171.896484375 753.365234375 101.580078125 690.299804688 c 13
 101.580078125 790 l 21
0 608 m 1
 0 0 l 1
 138 0 l 1
 136.424804688 319.202148438 l 1
 142.784179688 474.918945312 451.816333507 550.322566745 443 380 c 1
 443.342298289 380.068459658 l 1
 448 0 l 1
 577 0 l 1
 573 404 l 2
 572 509 513 608 382 612 c 0
 286.12109375 615.22265625 198.272460938 574.400390625 135.610351562 484.265625 c 1
 135 608 l 1
 0 608 l 1
EndSplineSet
Validated: 41
EndChar

StartChar: ograve
Encoding: 242 242 102
Width: 650
Flags: W
HStem: 0 130.108<193.976 351.1> 477.963 136.037<200.244 347.2> 780 20G<115 319.571>
VStem: 0.31543 123.048<204.773 395.424> 425.689 124.311<210.903 391.667>
LayerCount: 2
Fore
SplineSet
115 800 m 29
 309 800 l 29
 383 660 l 29
 329 660 l 29
 115 800 l 29
550 296.411132812 m 0
 550 127.21875 442.646484375 0 267.329101562 0 c 0
 96.583984375 0 0.3154296875 126.256835938 0.3154296875 294.879882812 c 0
 0.3154296875 464.072265625 96.0126953125 614 271.329101562 614 c 0
 443.350585938 614 550 469.565429688 550 296.411132812 c 0
123.36328125 298.74609375 m 0
 123.36328125 205.690429688 175.99609375 130.108398438 272.420898438 130.108398438 c 0
 368.845703125 130.108398438 425.689453125 206.533203125 425.689453125 299.588867188 c 0
 425.689453125 392.643554688 368.845703125 477.962890625 272.420898438 477.962890625 c 0
 175.99609375 477.962890625 123.36328125 391.802734375 123.36328125 298.74609375 c 0
EndSplineSet
Validated: 1
EndChar

StartChar: oacute
Encoding: 243 243 103
Width: 650
Flags: W
HStem: 0 130.108<193.976 351.1> 477.963 136.037<200.244 347.2>
VStem: 0.31543 123.048<204.773 395.424> 425.689 124.311<210.903 391.667>
LayerCount: 2
Fore
SplineSet
445 800 m 29
 251 800 l 29
 177 660 l 29
 231 660 l 29
 445 800 l 29
550 296.411132812 m 0
 550 127.21875 442.646484375 0 267.329101562 0 c 0
 96.583984375 0 0.3154296875 126.256835938 0.3154296875 294.879882812 c 0
 0.3154296875 464.072265625 96.0126953125 614 271.329101562 614 c 0
 443.350585938 614 550 469.565429688 550 296.411132812 c 0
123.36328125 298.74609375 m 0
 123.36328125 205.690429688 175.99609375 130.108398438 272.420898438 130.108398438 c 0
 368.845703125 130.108398438 425.689453125 206.533203125 425.689453125 299.588867188 c 0
 425.689453125 392.643554688 368.845703125 477.962890625 272.420898438 477.962890625 c 0
 175.99609375 477.962890625 123.36328125 391.802734375 123.36328125 298.74609375 c 0
EndSplineSet
Validated: 9
EndChar

StartChar: ocircumflex
Encoding: 244 244 104
Width: 650
Flags: W
HStem: 0 130.108<193.976 351.1> 477.963 136.037<200.244 347.2>
VStem: 0.31543 123.048<204.773 395.424> 425.689 124.311<210.903 391.667>
LayerCount: 2
Fore
SplineSet
42 698 m 5
 42 620 l 5
 266 718 l 5
 499 618 l 5
 501 695 l 5
 316 800 l 5
 210 800 l 5
 42 698 l 5
550 296.411132812 m 0
 550 127.21875 442.646484375 0 267.329101562 0 c 0
 96.583984375 0 0.3154296875 126.256835938 0.3154296875 294.879882812 c 0
 0.3154296875 464.072265625 96.0126953125 614 271.329101562 614 c 0
 443.350585938 614 550 469.565429688 550 296.411132812 c 0
123.36328125 298.74609375 m 0
 123.36328125 205.690429688 175.99609375 130.108398438 272.420898438 130.108398438 c 0
 368.845703125 130.108398438 425.689453125 206.533203125 425.689453125 299.588867188 c 0
 425.689453125 392.643554688 368.845703125 477.962890625 272.420898438 477.962890625 c 0
 175.99609375 477.962890625 123.36328125 391.802734375 123.36328125 298.74609375 c 0
EndSplineSet
Validated: 9
EndChar

StartChar: otilde
Encoding: 245 245 105
Width: 650
Flags: W
HStem: 0 130.108<193.976 351.1> 477.963 136.037<200.244 347.2>
VStem: 0.31543 123.048<204.773 395.424> 425.689 124.311<210.903 391.667>
LayerCount: 2
Fore
SplineSet
87.580078125 790 m 17
 140.3046875 837.544921875 205.2578125 839.483398438 284 790 c 1
 353.674804688 749.6328125 418.849609375 740.44140625 475.540039062 790 c 9
 475.540039062 689 l 17
 418.498046875 632.611328125 353.770507812 650.88671875 287.049804688 689 c 1
 223.188476562 730.280273438 157.896484375 753.365234375 87.580078125 690.299804688 c 9
 87.580078125 790 l 17
550 296.411132812 m 0
 550 127.21875 442.646484375 0 267.329101562 0 c 0
 96.583984375 0 0.3154296875 126.256835938 0.3154296875 294.879882812 c 0
 0.3154296875 464.072265625 96.0126953125 614 271.329101562 614 c 0
 443.350585938 614 550 469.565429688 550 296.411132812 c 0
123.36328125 298.74609375 m 0
 123.36328125 205.690429688 175.99609375 130.108398438 272.420898438 130.108398438 c 0
 368.845703125 130.108398438 425.689453125 206.533203125 425.689453125 299.588867188 c 0
 425.689453125 392.643554688 368.845703125 477.962890625 272.420898438 477.962890625 c 0
 175.99609375 477.962890625 123.36328125 391.802734375 123.36328125 298.74609375 c 0
EndSplineSet
Validated: 33
EndChar

StartChar: odieresis
Encoding: 246 246 106
Width: 650
Flags: W
HStem: 0 130.108<193.976 351.1> 477.963 136.037<200.244 347.2> 660 124<114.2 207.8 348.2 441.8>
VStem: 0.31543 123.048<204.773 395.424> 99 124<675.2 768.8> 333 124<675.2 768.8> 425.689 124.311<210.903 391.667>
LayerCount: 2
Fore
SplineSet
333 722 m 4xe4
 333 756 361 784 395 784 c 4
 429 784 457 756 457 722 c 4
 457 688 429 660 395 660 c 4
 361 660 333 688 333 722 c 4xe4
99 722 m 4xe8
 99 756 127 784 161 784 c 4
 195 784 223 756 223 722 c 4
 223 688 195 660 161 660 c 4
 127 660 99 688 99 722 c 4xe8
550 296.411132812 m 0xf2
 550 127.21875 442.646484375 0 267.329101562 0 c 0
 96.583984375 0 0.3154296875 126.256835938 0.3154296875 294.879882812 c 0
 0.3154296875 464.072265625 96.0126953125 614 271.329101562 614 c 0
 443.350585938 614 550 469.565429688 550 296.411132812 c 0xf2
123.36328125 298.74609375 m 0
 123.36328125 205.690429688 175.99609375 130.108398438 272.420898438 130.108398438 c 0
 368.845703125 130.108398438 425.689453125 206.533203125 425.689453125 299.588867188 c 0
 425.689453125 392.643554688 368.845703125 477.962890625 272.420898438 477.962890625 c 0
 175.99609375 477.962890625 123.36328125 391.802734375 123.36328125 298.74609375 c 0
EndSplineSet
Validated: 1
EndChar

StartChar: oslash
Encoding: 248 248 107
Width: 650
Flags: W
HStem: 0 21G<263.24 354.988> 594 20G<183.671 276.008>
VStem: 0.31543 123.048<206.073 395.518> 425.689 124.311<211.556 393.56>
LayerCount: 2
Fore
SplineSet
550 296.411132812 m 0
 550 127.21875 442.646484375 0 267.329101562 0 c 0
 259.151878943 0 251.145474736 0.289580929695 243.31228264 0.859527986937 c 1
 213.022460938 -86 l 1
 56.0224609375 -86 l 1
 103.904232702 51.8004048129 l 1
 36.5203616175 103.994966854 0.3154296875 191.470826664 0.3154296875 294.879882812 c 0
 0.3154296875 464.072265625 96.0126953125 614 271.329101562 614 c 0
 280.686306119 614 289.850082781 613.572635918 298.81378797 612.736532028 c 1
 334 714 l 1
 492 714 l 1
 437.375680927 557.358517659 l 1
 509.20326078 499.613738648 550 403.505532928 550 296.411132812 c 0
152.58567303 191.902200064 m 1
 251.49126374 476.545602675 l 1
 168.405625868 465.0150188 123.36328125 384.831508458 123.36328125 298.74609375 c 0
 123.36328125 258.216447224 133.347557403 221.001492943 152.58567303 191.902200064 c 1
288.644115337 130.85374286 m 1
 375.189276466 138.944266749 425.689453125 211.879111563 425.689453125 299.588867188 c 0
 425.689453125 343.815672596 412.849088638 386.295148992 389.021680259 418.697890482 c 1
 288.644115337 130.85374286 l 1
EndSplineSet
Validated: 1
EndChar

StartChar: eth
Encoding: 240 240 108
Width: 650
Flags: W
HStem: 0 130.108<193.976 351.1> 477.963 136.037<200.244 348.454>
VStem: 0.31543 123.048<204.773 395.424> 425.689 124.311<210.903 386.475>
LayerCount: 2
Fore
SplineSet
123.36328125 298.74609375 m 4
 123.36328125 205.690429688 175.99609375 130.108398438 272.420898438 130.108398438 c 4
 368.845703125 130.108398438 425.689453125 206.533203125 425.689453125 299.588867188 c 4
 425.689453125 392.643554688 368.845703125 477.962890625 272.420898438 477.962890625 c 4
 175.99609375 477.962890625 123.36328125 391.802734375 123.36328125 298.74609375 c 4
550 296.411132812 m 4
 550 127.21875 442.646484375 0 267.329101562 0 c 4
 96.583984375 0 0.3154296875 126.256835938 0.3154296875 294.879882812 c 4
 0.3154296875 464.072265625 96.0126953125 614 271.329101562 614 c 4
 301.523305531 614 329.703441977 609.550072443 355.646290222 601.275983027 c 5
 333.540702451 641.602626561 307.640776291 674.708687991 280.431009701 701.198506288 c 5
 56 602 l 5
 56 699 l 5
 201.238661849 759.419283329 l 5
 174.369404378 773.544676237 148.513173962 781.882659982 126 785 c 5
 126 943 l 5
 185.805818229 926.457965171 269.206819931 889.04680252 346.331595447 819.777943706 c 5
 556 907 l 5
 556 823 l 5
 406.48940862 756.91631861 l 5
 484.48678147 661.976719238 545.525957108 525.73862631 551 334 c 5
 548.287535354 334.08476452 l 5
 549.423713192 321.712718202 550 309.139519931 550 296.411132812 c 4
EndSplineSet
Validated: 1
EndChar

StartChar: ugrave
Encoding: 249 249 109
Width: 678
Flags: W
HStem: 780 20G<148 352.571>
VStem: 443 135<228.33 288.798>
LayerCount: 2
Fore
SplineSet
148 800 m 25
 342 800 l 25
 416 660 l 25
 362 660 l 25
 148 800 l 25
578 0 m 1
 578 608 l 1
 440 608 l 1
 441.575195312 288.797851562 l 1
 435.215820312 133.081054688 126.18359375 57.677734375 135 228 c 1
 134.657226562 227.931640625 l 1
 130 608 l 1
 0 608 l 1
 0 204 l 2
 1 99 65 0 196 -4 c 0
 291.87890625 -7.22265625 379.727539062 33.599609375 442.389648438 123.734375 c 1
 443 0 l 1
 578 0 l 1
EndSplineSet
Validated: 41
EndChar

StartChar: uacute
Encoding: 250 250 110
Width: 678
Flags: W
VStem: 443 135<228.33 288.798>
LayerCount: 2
Fore
SplineSet
476 800 m 29
 282 800 l 29
 208 660 l 29
 262 660 l 29
 476 800 l 29
578 0 m 1
 578 608 l 1
 440 608 l 1
 441.575195312 288.797851562 l 1
 435.215820312 133.081054688 126.18359375 57.677734375 135 228 c 1
 134.657226562 227.931640625 l 1
 130 608 l 1
 0 608 l 1
 0 204 l 2
 1 99 65 0 196 -4 c 0
 291.87890625 -7.22265625 379.727539062 33.599609375 442.389648438 123.734375 c 1
 443 0 l 1
 578 0 l 1
EndSplineSet
Validated: 41
EndChar

StartChar: ucircumflex
Encoding: 251 251 111
Width: 678
Flags: W
VStem: 443 135<228.33 288.798>
LayerCount: 2
Fore
SplineSet
67 753 m 5
 67 675 l 5
 291 773 l 5
 524 673 l 5
 526 750 l 5
 341 855 l 5
 235 855 l 5
 67 753 l 5
578 0 m 1
 578 608 l 1
 440 608 l 1
 441.575195312 288.797851562 l 1
 435.215820312 133.081054688 126.18359375 57.677734375 135 228 c 1
 134.657226562 227.931640625 l 1
 130 608 l 1
 0 608 l 1
 0 204 l 2
 1 99 65 0 196 -4 c 0
 291.87890625 -7.22265625 379.727539062 33.599609375 442.389648438 123.734375 c 1
 443 0 l 1
 578 0 l 1
EndSplineSet
Validated: 41
EndChar

StartChar: udieresis
Encoding: 252 252 112
Width: 678
Flags: W
HStem: 685 124<121.2 214.8 355.2 448.8>
VStem: 106 124<700.2 793.8> 340 124<700.2 793.8> 443 135<228.33 288.798>
LayerCount: 2
Fore
SplineSet
340 747 m 0xe0
 340 781 368 809 402 809 c 0
 436 809 464 781 464 747 c 0
 464 713 436 685 402 685 c 0
 368 685 340 713 340 747 c 0xe0
106 747 m 0
 106 781 134 809 168 809 c 0
 202 809 230 781 230 747 c 0
 230 713 202 685 168 685 c 0
 134 685 106 713 106 747 c 0
578 0 m 1xd0
 578 608 l 1
 440 608 l 1
 441.575195312 288.797851562 l 1
 435.215820312 133.081054688 126.18359375 57.677734375 135 228 c 1
 134.657226562 227.931640625 l 1
 130 608 l 1
 0 608 l 1
 0 204 l 2
 1 99 65 0 196 -4 c 0
 291.87890625 -7.22265625 379.727539062 33.599609375 442.389648438 123.734375 c 1
 443 0 l 1
 578 0 l 1xd0
EndSplineSet
Validated: 41
EndChar

StartChar: yacute
Encoding: 253 253 113
Width: 724
Flags: W
HStem: 588 20G<0 156.54 474.397 624>
LayerCount: 2
Fore
SplineSet
476 800 m 25
 282 800 l 25
 208 660 l 25
 262 660 l 25
 476 800 l 25
0 608 m 1
 149 608 l 1
 326 138.5 l 1
 481 608 l 1
 624 608 l 1
 420 0 l 1
 419.735114309 -1.53956708493e-17 l 1
 302.808045176 -275.740207568 150.295342226 -198.118445742 0 -133 c 1
 0 23 l 1
 64.5375751578 -9.27778440873 217.532659789 -100.829089187 273.092832189 -7.07767178199e-16 c 1
 228 0 l 1
 0 608 l 1
EndSplineSet
Validated: 41
EndChar

StartChar: thorn
Encoding: 254 254 114
Width: 691
Flags: W
HStem: 0 143<226.569 386.161>
VStem: -0.34082 143<210.8 396.148> 467.659 123<233.019 382.305>
LayerCount: 2
Fore
SplineSet
137.659179688 311 m 4
 137.659179688 394 199.659179688 465 317.659179688 464 c 4
 400.65625 463.296875 467.659179688 389 467.659179688 306 c 4
 467.659179688 223 400.650390625 144.194335938 317.659179688 143 c 4
 178.659179688 141 137.659179688 228 137.659179688 311 c 4
590.659179688 307 m 4
 587.03125 418.102539062 520.659179688 608 343.659179688 620 c 4
 247.946289062 626.489257812 163.659179688 569 142.659179688 507 c 5
 142.659179688 718 l 5
 -0.3408203125 718 l 5
 -1.3408203125 -96 l 5
 144.659179688 -96 l 5
 144.659179688 103 l 5
 178.659179688 42 226.428710938 0 329.659179688 0 c 4
 464.659179688 0 598.659179688 62 590.659179688 307 c 4
EndSplineSet
Validated: 41
EndChar

StartChar: ydieresis
Encoding: 255 255 115
Width: 724
Flags: W
HStem: 588 20G<0 156.54 474.397 624> 660 124<153.2 246.8 387.2 480.8>
VStem: 138 124<675.2 768.8> 372 124<675.2 768.8>
LayerCount: 2
Fore
SplineSet
372 722 m 4
 372 756 400 784 434 784 c 4
 468 784 496 756 496 722 c 4
 496 688 468 660 434 660 c 4
 400 660 372 688 372 722 c 4
138 722 m 4
 138 756 166 784 200 784 c 4
 234 784 262 756 262 722 c 4
 262 688 234 660 200 660 c 4
 166 660 138 688 138 722 c 4
0 608 m 1
 149 608 l 1
 326 138.5 l 1
 481 608 l 1
 624 608 l 1
 420 0 l 1
 419.735114309 -1.53956708493e-17 l 1
 302.808045176 -275.740207568 150.295342226 -198.118445742 0 -133 c 1
 0 23 l 1
 64.5375751578 -9.27778440873 217.532659789 -100.829089187 273.092832189 -7.07767178199e-16 c 1
 228 0 l 1
 0 608 l 1
EndSplineSet
Validated: 33
EndChar

StartChar: exclamdown
Encoding: 161 161 116
Width: 244
Flags: W
HStem: 672 139<21 123>
VStem: 0 144<1.5 173.583 693 792.5> 24 97<411.935 591.5>
LayerCount: 2
Fore
SplineSet
24 591.5 m 1xa0
 1 1.5 l 1
 139 1.5 l 1
 121 591.5 l 1
 24 591.5 l 1xa0
0 744 m 0xc0
 0 704 32 672 72 672 c 0
 112 672 144 704 144 744 c 0
 144 784 112 811 72 811 c 0
 32 811 0 784 0 744 c 0xc0
EndSplineSet
Validated: 9
EndChar

StartChar: cent
Encoding: 162 162 117
Width: 650
Flags: W
HStem: 138.039 127.38<178.327 224 362 468.282> 467.261 138.192<177.918 224 362 469.153>
VStem: -4.01367 150.014<297.951 436.455> 224 138<15 139.172 267.611 467.261 603.491 726>
LayerCount: 2
Fore
SplineSet
499.276367188 158.239257812 m 1025
539 551.377929688 m 1
 539 416.91796875 l 1
 539 416.91796875 480.130067048 454.772501316 362 467.309756313 c 1
 362 265.418448828 l 1
 469.113695258 276.75625173 532.89921611 312.043314323 546 315.620117188 c 1
 546 179.400390625 l 1
 513.223534406 167.403686432 491.035689529 145.429345325 362 138.038626179 c 1
 362 15 l 1
 224 15 l 1
 224 137.066071691 l 1
 77.6681206905 148.903859275 -4.013671875 228.833931661 -4.013671875 352.705078125 c 0
 -4.013671875 476.158307183 76.0956620976 587.41782208 224 605.45242907 c 1
 224 726 l 1
 362 726 l 1
 362 604.464633172 l 1
 479.928330164 594.682868111 513.769756782 566.955284048 539 551.377929688 c 1
224 467.260786368 m 1
 160.677585765 456.059279709 144.334605033 420.402847795 146 352.002929688 c 0
 146.793161989 305.194753745 173.686848195 278.309699444 224 267.610755055 c 1
 224 467.260786368 l 1
EndSplineSet
Validated: 33
EndChar

StartChar: dieresis
Encoding: 168 168 118
Width: 458
Flags: W
HStem: 660 124<15.2003 108.8 249.2 342.8>
VStem: 0 124<675.2 768.8> 234 124<675.2 768.8>
LayerCount: 2
Fore
SplineSet
234 722 m 0
 234 756 262 784 296 784 c 0
 330 784 358 756 358 722 c 0
 358 688 330 660 296 660 c 0
 262 660 234 688 234 722 c 0
0 722 m 0
 0 756 28 784 62 784 c 0
 96 784 124 756 124 722 c 0
 124 688 96 660 62 660 c 0
 28 660 0 688 0 722 c 0
EndSplineSet
Validated: 1
EndChar

StartChar: copyright
Encoding: 169 169 119
Width: 382
Flags: W
HStem: 475.29 18.0801<99.3298 185.157> 666.203 33.8428<110.799 198.372> 757.79 19.21<96.2777 186.566>
VStem: 0.31543 17.9346<577.509 674.216> 75.6416 29.3184<591.985 660.089> 265.12 16.8799<579.018 670.947>
LayerCount: 2
Fore
SplineSet
18.25 625.580078125 m 4
 18.25 552.6953125 73.6376953125 493.370117188 141.685546875 493.370117188 c 4
 209.733398438 493.370117188 265.120117188 552.6953125 265.120117188 625.580078125 c 4
 265.120117188 698.46484375 209.733398438 757.790039062 141.685546875 757.790039062 c 4
 73.6376953125 757.790039062 18.25 698.46484375 18.25 625.580078125 c 4
0.3154296875 626.14453125 m 4
 0.3154296875 709.200195312 63.615234375 777 141.158203125 777 c 4
 218.700195312 777 282 709.200195312 282 626.14453125 c 4
 282 543.08984375 218.700195312 475.290039062 141.158203125 475.290039062 c 4
 63.615234375 475.290039062 0.3154296875 543.08984375 0.3154296875 626.14453125 c 4
199.041992188 682.763671875 m 5
 199.041992188 649.66015625 l 5
 199.041992188 649.66015625 178.577148438 667.334960938 137.477539062 666.203125 c 4
 114.725585938 665.577148438 104.505859375 646.983398438 104.959960938 621.912109375 c 5
 105.1875 603.900390625 119.615234375 585.176757812 137.477539062 584.2109375 c 4
 174.690429688 582.198242188 196.868164062 599.356445312 200.6328125 600.736328125 c 5
 200.6328125 563.739257812 l 5
 191.5859375 559.291015625 186.088867188 550.350585938 136.3203125 550.350585938 c 4
 97.51953125 550.350585938 75.6416015625 581.083007812 75.6416015625 622.126953125 c 4
 75.6416015625 663.309570312 97.3896484375 700.045898438 137.23046875 700.045898438 c 4
 181.998046875 700.045898438 191.997070312 688.60546875 199.041992188 682.763671875 c 5
190.014648438 557.280273438 m 1029
EndSplineSet
Validated: 33
EndChar

StartChar: guillemotleft
Encoding: 171 171 120
Width: 1002
Flags: W
HStem: 588 20G<445.803 492>
LayerCount: 2
Fore
SplineSet
899 605 m 5
 899 473.5 l 5
 542 332 l 29
 902 182 l 29
 902 70 l 5
 407 270 l 5
 406 388 l 5
 899 605 l 5
492 608 m 29
 492 476.5 l 5
 145 335 l 29
 495 185 l 29
 495 73 l 5
 0 273 l 29
 0 395 l 5
 492 608 l 29
EndSplineSet
Validated: 1
EndChar

StartChar: guillemotright
Encoding: 187 187 121
Width: 1002
Flags: W
LayerCount: 2
Fore
SplineSet
2 605 m 1
 2 473.5 l 1
 359 332 l 25
 -1 182 l 25
 -1 70 l 1
 494 270 l 1
 495 388 l 1
 2 605 l 1
409 608 m 25
 409 476.5 l 1
 756 335 l 25
 406 185 l 25
 406 73 l 1
 901 273 l 25
 901 395 l 1
 409 608 l 25
EndSplineSet
Validated: 9
EndChar

StartChar: multiply
Encoding: 215 215 122
Width: 574
Flags: W
LayerCount: 2
Fore
SplineSet
477.0625 309.200195312 m 1
 379.481445312 211.619140625 l 1
 244.225585938 347.892578125 l 1
 109.366210938 213.033203125 l 1
 13.2001953125 309.200195312 l 1
 148.418945312 444.418945312 l 1
 3.30078125 590.62890625 l 1
 100.880859375 688.208984375 l 1
 246 542 l 1
 375.23828125 671.23828125 l 1
 471.405273438 575.072265625 l 1
 341.805664062 445.47265625 l 1
 477.0625 309.200195312 l 1
EndSplineSet
Validated: 1
EndChar

StartChar: divide
Encoding: 247 247 123
Width: 612
Flags: W
HStem: 136 144<215 317> 379 136<0 512> 609 144<194 296>
VStem: 173 144<630 732> 194 144<157 259>
LayerCount: 2
Fore
SplineSet
194 208 m 0xe8
 194 248 226 280 266 280 c 0
 306 280 338 248 338 208 c 0
 338 168 306 136 266 136 c 0
 226 136 194 168 194 208 c 0xe8
173 681 m 0xf0
 173 721 205 753 245 753 c 0
 285 753 317 721 317 681 c 0
 317 641 285 609 245 609 c 0
 205 609 173 641 173 681 c 0xf0
0 515 m 1
 512 515 l 1
 512 379 l 1
 0 379 l 1
 0 515 l 1
EndSplineSet
Validated: 1
EndChar

StartChar: brokenbar
Encoding: 166 166 124
Width: 247
Flags: W
HStem: 780 20G<0 147>
VStem: 0 147<-132 290 440 800>
LayerCount: 2
Fore
SplineSet
147 290 m 1
 147 -132 l 1
 0 -132 l 1
 0 290 l 1
 147 290 l 1
0 440 m 17
 0 800 l 1
 147 800 l 1
 147 440 l 1
 0 440 l 17
147 290 m 1025
0 290 m 1025
EndSplineSet
Validated: 1
EndChar

StartChar: section
Encoding: 167 167 125
Width: 875
Flags: W
LayerCount: 2
Fore
SplineSet
200.604492188 555.772460938 m 1
 367.58203125 501.659179688 592.252929688 510.659179688 598.727539062 410.330078125 c 0
 597.424804688 394.529296875 588.772460938 381.59375 574.465820312 371.216796875 c 1
 407.48828125 425.330078125 182.81640625 416.330078125 176.342773438 516.659179688 c 0
 177.645507812 532.458984375 186.296875 545.396484375 200.604492188 555.772460938 c 1
712.334960938 289.276367188 m 1
 758.860351562 336.241210938 774.73046875 394.390625 774.998046875 448.62109375 c 0
 776.278320312 708.486328125 204.815429688 615.41796875 190.716796875 743.935546875 c 1
 204.19140625 929.015625 661.625976562 799.3828125 743.890625 765.3203125 c 1
 745.186523438 908.741210938 l 1
 651.68359375 950.569335938 523.552734375 992.989257812 383.571289062 992.989257812 c 1
 177.561523438 985.029296875 28.271484375 896.44921875 22.1181640625 759.66015625 c 1
 21.9560546875 759.688476562 l 1
 21.306640625 708.193359375 36.658203125 668.634765625 62.734375 637.712890625 c 1
 16.2099609375 590.747070312 0.33984375 532.598632812 0.072265625 478.368164062 c 0
 -1.2080078125 218.502929688 570.254882812 311.571289062 584.353515625 183.053710938 c 1
 570.87890625 -2.0263671875 113.444335938 127.606445312 31.1796875 161.668945312 c 1
 29.8837890625 18.248046875 l 1
 123.38671875 -23.580078125 251.517578125 -66 391.499023438 -66 c 1
 597.508789062 -58.0400390625 746.798828125 30.5400390625 752.952148438 167.329101562 c 1
 753.114257812 167.30078125 l 1
 753.762695312 218.795898438 738.411132812 258.354492188 712.334960938 289.276367188 c 1
EndSplineSet
Validated: 41
EndChar

StartChar: degree
Encoding: 176 176 126
Width: 376
Flags: W
HStem: 506 105<109.95 169.725> 675 107<109.95 169.725>
VStem: 0 108<612.775 672.55> 172 104<612.775 672.55>
LayerCount: 2
Fore
SplineSet
108 643 m 4
 108 625 122 611 140 611 c 4
 158 611 172 625 172 643 c 4
 172 661 158 675 140 675 c 4
 122 675 108 661 108 643 c 4
0 644 m 4
 0 720 62 782 138 782 c 4
 214 782 276 720 276 644 c 4
 276 568 214 506 138 506 c 4
 62 506 0 568 0 644 c 4
EndSplineSet
Validated: 1
EndChar

StartChar: plusminus
Encoding: 177 177 127
Width: 612
Flags: W
HStem: 1 136<-2 510> 396 136<0 182.771 321.281 512>
VStem: 182 138<190 396 532 724>
LayerCount: 2
Fore
SplineSet
-2 137 m 5
 510 137 l 5
 510 1 l 5
 -2 1 l 5
 -2 137 l 5
184 724 m 5
 322 724 l 5
 321.28125 532 l 5
 512 532 l 5
 512 396 l 5
 320.771484375 396 l 5
 320 190 l 5
 182 190 l 5
 182.771484375 396 l 5
 0 396 l 5
 0 532 l 5
 183.28125 532 l 5
 184 724 l 5
EndSplineSet
Validated: 1
EndChar

StartChar: cedilla
Encoding: 184 184 128
Width: 650
Flags: W
HStem: -162 41<266 367.191> -71 71.0059<265 317.965>
LayerCount: 2
Fore
SplineSet
265 -162 m 5
 422.709960938 -211.522460938 479.876953125 -34.4306640625 319 -29 c 5
 321.616210938 0.8544921875 l 5
 265 0.005859375 l 5
 265 -71 l 5
 395 -36 420 -146 266 -121 c 5
 265 -162 l 5
EndSplineSet
Validated: 41
EndChar

StartChar: periodcentered
Encoding: 183 183 129
Width: 244
Flags: W
HStem: 210.5 139<21 123>
VStem: 0 144<229 328.5>
LayerCount: 2
Fore
SplineSet
0 277.5 m 0
 0 317.5 32 349.5 72 349.5 c 0
 112 349.5 144 317.5 144 277.5 c 0
 144 237.5 112 210.5 72 210.5 c 0
 32 210.5 0 237.5 0 277.5 c 0
EndSplineSet
Validated: 1
EndChar

StartChar: acute
Encoding: 180 180 130
Width: 368
Flags: W
HStem: 660 140
LayerCount: 2
Fore
SplineSet
268 800 m 25
 74 800 l 25
 0 660 l 25
 54 660 l 25
 268 800 l 25
EndSplineSet
Validated: 9
EndChar

StartChar: questiondown
Encoding: 191 191 131
Width: 609
Flags: W
HStem: 684 139<221 323>
VStem: -7.6084 146<183.985 309.893> 200 144<531.36 608.5 705 804.5>
LayerCount: 2
Fore
SplineSet
506 88.5 m 1
 506 234.5 l 1
 366.737304688 139.709960938 136.801757812 67.396484375 138.391601562 256.5 c 1
 140.391601562 357.5 344.391601562 447.5 342 608.5 c 1
 206 608.5 l 1
 192.391601562 449.5 8.3916015625 447.5 -7.6083984375 241.5 c 1
 4.3916015625 -90.5 364.547851562 -10.267578125 506 88.5 c 1
344 756 m 0
 344 716 312 684 272 684 c 0
 232 684 200 716 200 756 c 0
 200 796 232 823 272 823 c 0
 312 823 344 796 344 756 c 0
EndSplineSet
Validated: 41
EndChar

StartChar: Thorn
Encoding: 222 222 132
Width: 691
Flags: W
HStem: 0 143<226.569 386.161>
VStem: 1 136.659<220.842 389.903> 467.659 123<233.019 382.305>
LayerCount: 2
Fore
SplineSet
137.659179688 311 m 0
 137.659179688 394 199.659179688 465 317.659179688 464 c 0
 400.65625 463.296875 467.659179688 389 467.659179688 306 c 0
 467.659179688 223 400.650390625 144.194335938 317.659179688 143 c 0
 178.659179688 141 137.659179688 228 137.659179688 311 c 0
590.659179688 307 m 0
 587.03125 418.102539062 520.659179688 608 343.659179688 620 c 0
 247.946289062 626.489257812 163.659179688 569 142.659179688 507 c 1
 141 854 l 1
 -2 854 l 1
 1 -199 l 1
 147 -199 l 1
 144.659179688 103 l 1
 178.659179688 42 226.428710938 0 329.659179688 0 c 0
 464.659179688 0 598.659179688 62 590.659179688 307 c 0
EndSplineSet
Validated: 41
EndChar

StartChar: Eth
Encoding: 208 208 133
Width: 742
Flags: W
HStem: 0 137.896<144 378.102> 332.5 136<-107 0 143.247 331> 655.061 145.939<142 364.857>
VStem: 0 142.721<137.896 332.5 468.5 655.061>
LayerCount: 2
Fore
SplineSet
144 137.896484375 m 1
 307.614257812 137.423828125 l 2
 553.994834955 136.712072797 545.999692206 653.893454336 305.614257812 654.587890625 c 2
 142 655.060546875 l 1
 142.721475293 468.5 l 1
 331 468.5 l 5
 331 332.5 l 5
 143.247420578 332.5 l 1
 144 137.896484375 l 1
0 801 m 1
 104.222418799 801.555752132 218.564566991 799.548875019 323 800 c 0
 786 802 718 0 325 0 c 0
 196.333007812 0 128.666666667 0 0 0 c 1
 0 332.5 l 1
 -107 332.5 l 1
 -107 468.5 l 1
 0 468.5 l 1
 0 801 l 1
EndSplineSet
Validated: 33
EndChar

StartChar: Ntilde
Encoding: 209 209 134
Width: 787
Flags: W
LayerCount: 2
Fore
SplineSet
159 987.700195312 m 17
 211.724609375 1035.24511719 276.677734375 1037.18359375 355.419921875 987.700195312 c 1
 425.094726562 947.333007812 490.26953125 938.141601562 546.959960938 987.700195312 c 9
 546.959960938 886.700195312 l 17
 489.91796875 830.311523438 425.190429688 848.586914062 358.469726562 886.700195312 c 1
 294.608398438 927.98046875 229.31640625 951.065429688 159 888 c 9
 159 987.700195312 l 17
143 800 m 1
 0 800 l 1
 0 0 l 1
 145 0 l 1
 142 557 l 1
 550 0 l 1
 693 0 l 1
 691 800 l 1
 550 800 l 1
 546 230 l 1
 143 800 l 1
EndSplineSet
Validated: 41
EndChar

StartChar: Agrave
Encoding: 192 192 135
Width: 851
Flags: W
HStem: 0 21G<0 171.598 594.878 766> 114 134<258.217 525.082> 780 20G<312 504.7>
LayerCount: 2
Fore
SplineSet
266 1007 m 29
 460 1007 l 29
 534 867 l 29
 480 867 l 29
 266 1007 l 29
0 0 m 1
 320 800 l 1
 498 800 l 1
 766 0 l 1
 601 0 l 1
 566.102040816 114 l 1
 207.309262166 114 l 1
 164 0 l 1
 0 0 l 1
525.081632653 248 m 1
 406 637 l 1
 258.216640502 248 l 1
 525.081632653 248 l 1
EndSplineSet
Validated: 1
EndChar

StartChar: Aacute
Encoding: 193 193 136
Width: 851
Flags: W
HStem: 0 21G<0 171.598 594.878 766> 114 134<258.217 525.082> 780 20G<312 504.7>
LayerCount: 2
Fore
SplineSet
545 1009 m 29
 351 1009 l 29
 277 869 l 29
 331 869 l 29
 545 1009 l 29
0 0 m 1
 320 800 l 1
 498 800 l 1
 766 0 l 1
 601 0 l 1
 566.102040816 114 l 1
 207.309262166 114 l 1
 164 0 l 1
 0 0 l 1
525.081632653 248 m 1
 406 637 l 1
 258.216640502 248 l 1
 525.081632653 248 l 1
EndSplineSet
Validated: 9
EndChar

StartChar: Atilde
Encoding: 195 195 137
Width: 851
Flags: W
HStem: 0 21G<0 171.598 594.878 766> 114 134<258.217 525.082> 780 20G<312 504.7>
LayerCount: 2
Fore
SplineSet
209.040039062 1002 m 17
 261.764648438 1049.54492188 326.717773438 1051.48339844 405.459960938 1002 c 1
 475.134765625 961.6328125 540.309570312 952.44140625 597 1002 c 9
 597 901 l 17
 539.958007812 844.611328125 475.23046875 862.88671875 408.509765625 901 c 1
 344.6484375 942.280273438 279.356445312 965.365234375 209.040039062 902.299804688 c 9
 209.040039062 1002 l 17
0 0 m 1
 320 800 l 1
 498 800 l 1
 766 0 l 1
 601 0 l 1
 566.102040816 114 l 1
 207.309262166 114 l 1
 164 0 l 1
 0 0 l 1
525.081632653 248 m 1
 406 637 l 1
 258.216640502 248 l 1
 525.081632653 248 l 1
EndSplineSet
Validated: 33
EndChar

StartChar: Acircumflex
Encoding: 194 194 138
Width: 851
Flags: W
HStem: 0 21G<0 171.598 594.878 766> 114 134<258.217 525.082> 780 20G<312 504.7>
LayerCount: 2
Fore
SplineSet
169 924 m 5
 169 846 l 5
 393 944 l 5
 626 844 l 5
 628 921 l 5
 443 1026 l 5
 337 1026 l 5
 169 924 l 5
0 0 m 1
 320 800 l 1
 498 800 l 1
 766 0 l 1
 601 0 l 1
 566.102040816 114 l 1
 207.309262166 114 l 1
 164 0 l 1
 0 0 l 1
525.081632653 248 m 1
 406 637 l 1
 258.216640502 248 l 1
 525.081632653 248 l 1
EndSplineSet
Validated: 9
EndChar

StartChar: Adieresis
Encoding: 196 196 139
Width: 851
Flags: W
HStem: 0 21G<0 171.598 594.878 766> 114 134<258.217 525.082> 780 20G<312 504.7> 910 124<251.2 344.8 485.2 578.8>
VStem: 236 124<925.2 1018.8> 470 124<925.2 1018.8>
LayerCount: 2
Fore
SplineSet
470 972 m 4
 470 1006 498 1034 532 1034 c 4
 566 1034 594 1006 594 972 c 4
 594 938 566 910 532 910 c 4
 498 910 470 938 470 972 c 4
236 972 m 4
 236 1006 264 1034 298 1034 c 4
 332 1034 360 1006 360 972 c 4
 360 938 332 910 298 910 c 4
 264 910 236 938 236 972 c 4
0 0 m 1
 320 800 l 1
 498 800 l 1
 766 0 l 1
 601 0 l 1
 566.102040816 114 l 1
 207.309262166 114 l 1
 164 0 l 1
 0 0 l 1
525.081632653 248 m 1
 406 637 l 1
 258.216640502 248 l 1
 525.081632653 248 l 1
EndSplineSet
Validated: 1
EndChar

StartChar: Aring
Encoding: 197 197 140
Width: 851
Flags: W
HStem: 0 21G<0 171.598 594.878 766> 114 134<258.217 525.082> 780 20G<312 504.7> 871.502 47.084<381.811 454.252> 1000.65 52.3457<381.811 454.252>
VStem: 326.251 50.7676<924.21 995.627> 459.086 48.6631<924.21 995.627>
LayerCount: 2
Fore
SplineSet
377.018554688 959.620117188 m 0
 377.018554688 936.5390625 394.969726562 918.5859375 418.052734375 918.5859375 c 0
 441.133789062 918.5859375 459.0859375 936.5390625 459.0859375 959.620117188 c 0
 459.0859375 982.701171875 441.133789062 1000.65429688 418.052734375 1000.65429688 c 0
 394.969726562 1000.65429688 377.018554688 982.701171875 377.018554688 959.620117188 c 0
326.250976562 962.250976562 m 0
 326.250976562 1012.22753906 367.022460938 1053 417 1053 c 0
 466.978515625 1053 507.749023438 1012.22753906 507.749023438 962.250976562 c 0
 507.749023438 912.272460938 466.978515625 871.501953125 417 871.501953125 c 0
 367.022460938 871.501953125 326.250976562 912.272460938 326.250976562 962.250976562 c 0
0 0 m 1
 320 800 l 1
 498 800 l 1
 766 0 l 1
 601 0 l 1
 566.102040816 114 l 1
 207.309262166 114 l 1
 164 0 l 1
 0 0 l 1
525.081632653 248 m 1
 406 637 l 1
 258.216640502 248 l 1
 525.081632653 248 l 1
EndSplineSet
Validated: 1
EndChar

StartChar: AE
Encoding: 198 198 141
Width: 1529
Flags: W
HStem: 0 137.998<771 1202> 114 134<354.217 626.102> 362 138<771 1202> 656.164 144.836<771 1201>
VStem: 628.082 142.918<248 362 500 637>
LayerCount: 2
Fore
SplineSet
1202 137.4453125 m 1025x38
1202 0 m 1025xb8
1202 500 m 1025
628.08203125 248 m 1x78
 628 637 l 1
 354.216796875 248 l 1
 628.08203125 248 l 1x78
0 0 m 1xb8
 588 800 l 1
 629 800 l 1
 629 801 l 1
 771 801 l 1
 1201 801 l 1
 1202 655.611328125 l 1
 771 656.1640625 l 1
 771 500 l 1
 1202 500 l 1
 1202 361.447265625 l 1
 771 362 l 1
 771 137.998046875 l 1
 1202 137.4453125 l 1
 1202 0 l 1
 771 0 l 1
 770 0 l 1
 766 0 l 1
 629 0 l 1
 627 0 l 1xb8
 626.1015625 114 l 1
 261.309570312 114 l 1x78
 164 0 l 1
 0 0 l 1xb8
EndSplineSet
Validated: 1
EndChar

StartChar: Ccedilla
Encoding: 199 199 142
Width: 730
Flags: W
HStem: -155 41<325 426.191>
VStem: 0 149.1<285.861 491.469>
LayerCount: 2
Fore
SplineSet
639 767.393554688 m 1025
639 568.000976562 m 1025
639 568 m 1
 605.00390625 594.002929688 453 654 359.059570312 639.66015625 c 0
 244.387695312 622.155273438 149.099609375 519 149.099609375 390.240234375 c 0
 149.099609375 261.48046875 243.422851562 138.911132812 359.059570312 148.080078125 c 0
 522 161 607.00390625 205.0625 641 231.380859375 c 1
 641 54 l 1
 604.553419154 40.1887457757 522.135933267 8.43762616932 379.942567014 0.167307270665 c 1
 378 -22 l 1
 538.876953125 -27.4306640625 481.709960938 -204.522460938 324 -155 c 1
 325 -114 l 1
 479 -139 454 -29 324 -64 c 1
 324 1.76110649551 l 1
 146.972350096 23.3805915632 -1.20736753928e-15 199.88102039 0 402 c 0
 0 624 182.260742188 789.032226562 384 801 c 0
 502 808 602.302734375 781.099609375 639 767.393554688 c 1
 639 568 l 1
EndSplineSet
Validated: 33
EndChar

StartChar: Egrave
Encoding: 200 200 143
Width: 665
Flags: W
LayerCount: 2
Fore
SplineSet
143 1007 m 29
 337 1007 l 29
 411 867 l 29
 357 867 l 29
 143 1007 l 29
573 137.4453125 m 17
 142 137.998046875 l 1
 142 362 l 1
 573 361.447265625 l 1
 573 500 l 1
 142 500 l 1
 142 656.1640625 l 1
 573 655.611328125 l 1
 572 801 l 1
 142 801 l 1
 0 801 l 1
 0 0 l 1
 141 0 l 1
 142 0 l 1
 573 0 l 1
 573 137.4453125 l 17
573 500 m 1025
573 0 m 1025
573 137.4453125 m 1025
EndSplineSet
Validated: 9
EndChar

StartChar: Eacute
Encoding: 201 201 144
Width: 665
Flags: W
LayerCount: 2
Fore
SplineSet
459 1002 m 25
 265 1002 l 25
 191 862 l 25
 245 862 l 25
 459 1002 l 25
573 137.4453125 m 17
 142 137.998046875 l 1
 142 362 l 1
 573 361.447265625 l 1
 573 500 l 1
 142 500 l 1
 142 656.1640625 l 1
 573 655.611328125 l 1
 572 801 l 1
 142 801 l 1
 0 801 l 1
 0 0 l 1
 141 0 l 1
 142 0 l 1
 573 0 l 1
 573 137.4453125 l 17
573 500 m 1025
573 0 m 1025
573 137.4453125 m 1025
EndSplineSet
Validated: 9
EndChar

StartChar: Edieresis
Encoding: 203 203 145
Width: 665
Flags: W
HStem: 893 124<139.2 232.8 373.2 466.8>
VStem: 124 124<908.2 1001.8> 358 124<908.2 1001.8>
LayerCount: 2
Fore
SplineSet
358 955 m 0
 358 989 386 1017 420 1017 c 0
 454 1017 482 989 482 955 c 0
 482 921 454 893 420 893 c 0
 386 893 358 921 358 955 c 0
124 955 m 0
 124 989 152 1017 186 1017 c 0
 220 1017 248 989 248 955 c 0
 248 921 220 893 186 893 c 0
 152 893 124 921 124 955 c 0
573 137.4453125 m 17
 142 137.998046875 l 1
 142 362 l 1
 573 361.447265625 l 1
 573 500 l 1
 142 500 l 1
 142 656.1640625 l 1
 573 655.611328125 l 1
 572 801 l 1
 142 801 l 1
 0 801 l 1
 0 0 l 1
 141 0 l 1
 142 0 l 1
 573 0 l 1
 573 137.4453125 l 17
573 500 m 1025
573 0 m 1025
573 137.4453125 m 1025
EndSplineSet
Validated: 9
EndChar

StartChar: Igrave
Encoding: 204 204 146
Width: 409
Flags: W
LayerCount: 2
Fore
SplineSet
15 1029 m 29
 209 1029 l 29
 283 889 l 29
 229 889 l 29
 15 1029 l 29
1 136 m 1
 1 0 l 1
 96 0 l 1
 241 0 l 1
 323 0 l 1
 323 136 l 1
 240.700195312 136 l 1
 239.28515625 671 l 1
 322 671 l 1
 322 801 l 1
 0 801 l 1
 0 671 l 1
 96 671 l 1
 96 136 l 1
 1 136 l 1
EndSplineSet
Validated: 9
EndChar

StartChar: Iacute
Encoding: 205 205 147
Width: 409
Flags: W
LayerCount: 2
Fore
SplineSet
321 1022 m 29
 127 1022 l 29
 53 882 l 29
 107 882 l 29
 321 1022 l 29
1 136 m 1
 1 0 l 1
 96 0 l 1
 241 0 l 1
 323 0 l 1
 323 136 l 1
 240.700195312 136 l 1
 239.28515625 671 l 1
 322 671 l 1
 322 801 l 1
 0 801 l 1
 0 671 l 1
 96 671 l 1
 96 136 l 1
 1 136 l 1
EndSplineSet
Validated: 9
EndChar

StartChar: Icircumflex
Encoding: 206 206 148
Width: 409
Flags: W
LayerCount: 2
Fore
SplineSet
-69 957 m 5
 -69 879 l 5
 155 977 l 5
 388 877 l 5
 390 954 l 5
 205 1059 l 5
 99 1059 l 5
 -69 957 l 5
1 136 m 1
 1 0 l 1
 96 0 l 1
 241 0 l 1
 323 0 l 1
 323 136 l 1
 240.700195312 136 l 1
 239.28515625 671 l 1
 322 671 l 1
 322 801 l 1
 0 801 l 1
 0 671 l 1
 96 671 l 1
 96 136 l 1
 1 136 l 1
EndSplineSet
Validated: 9
EndChar

StartChar: Idieresis
Encoding: 207 207 149
Width: 409
Flags: W
HStem: 911 124<-10.7997 82.7997 223.2 316.8>
VStem: -26 124<926.2 1019.8> 208 124<926.2 1019.8>
LayerCount: 2
Fore
SplineSet
208 973 m 0
 208 1007 236 1035 270 1035 c 0
 304 1035 332 1007 332 973 c 0
 332 939 304 911 270 911 c 0
 236 911 208 939 208 973 c 0
-26 973 m 0
 -26 1007 2 1035 36 1035 c 0
 70 1035 98 1007 98 973 c 0
 98 939 70 911 36 911 c 0
 2 911 -26 939 -26 973 c 0
1 136 m 1
 1 0 l 1
 96 0 l 1
 241 0 l 1
 323 0 l 1
 323 136 l 1
 240.700195312 136 l 1
 239.28515625 671 l 1
 322 671 l 1
 322 801 l 1
 0 801 l 1
 0 671 l 1
 96 671 l 1
 96 136 l 1
 1 136 l 1
EndSplineSet
Validated: 9
EndChar

StartChar: Ograve
Encoding: 210 210 150
Width: 839
Flags: W
HStem: 0 139.08<278.77 437.89> 638.66 162.34<278.77 437.89>
VStem: 0 149.1<288.822 493.441> 569.02 154.98<288.822 493.441>
LayerCount: 2
Fore
SplineSet
230 1013 m 29
 424 1013 l 29
 498 873 l 29
 444 873 l 29
 230 1013 l 29
149.099609375 390.240234375 m 0
 149.099609375 261.48046875 243.059570312 139.080078125 359.059570312 139.080078125 c 0
 475.059570312 139.080078125 569.01953125 261.48046875 569.01953125 390.240234375 c 0
 569.01953125 519 475.059570312 638.66015625 359.059570312 638.66015625 c 0
 243.059570312 638.66015625 149.099609375 519 149.099609375 390.240234375 c 0
0 402 m 0
 0 624 162 801 362 801 c 0
 562 801 724 624 724 402 c 0
 724 180 562 0 362 0 c 0
 162 0 0 180 0 402 c 0
EndSplineSet
Validated: 1
EndChar

StartChar: Oacute
Encoding: 211 211 151
Width: 839
Flags: W
HStem: 0 139.08<278.77 437.89> 638.66 162.34<278.77 437.89>
VStem: 0 149.1<288.822 493.441> 569.02 154.98<288.822 493.441>
LayerCount: 2
Fore
SplineSet
545 1009 m 29
 351 1009 l 29
 277 869 l 29
 331 869 l 29
 545 1009 l 29
149.099609375 390.240234375 m 0
 149.099609375 261.48046875 243.059570312 139.080078125 359.059570312 139.080078125 c 0
 475.059570312 139.080078125 569.01953125 261.48046875 569.01953125 390.240234375 c 0
 569.01953125 519 475.059570312 638.66015625 359.059570312 638.66015625 c 0
 243.059570312 638.66015625 149.099609375 519 149.099609375 390.240234375 c 0
0 402 m 0
 0 624 162 801 362 801 c 0
 562 801 724 624 724 402 c 0
 724 180 562 0 362 0 c 0
 162 0 0 180 0 402 c 0
EndSplineSet
Validated: 9
EndChar

StartChar: Otilde
Encoding: 213 213 152
Width: 839
Flags: W
HStem: 0 139.08<278.77 437.89> 638.66 162.34<278.77 437.89>
VStem: 0 149.1<288.822 493.441> 569.02 154.98<288.822 493.441>
LayerCount: 2
Fore
SplineSet
177 1002.70019531 m 21
 229.724609375 1050.24511719 294.677734375 1052.18359375 373.419921875 1002.70019531 c 5
 443.094726562 962.333007812 508.26953125 953.141601562 564.959960938 1002.70019531 c 13
 564.959960938 901.700195312 l 21
 507.91796875 845.311523438 443.190429688 863.586914062 376.469726562 901.700195312 c 5
 312.608398438 942.98046875 247.31640625 966.065429688 177 903 c 13
 177 1002.70019531 l 21
149.099609375 390.240234375 m 0
 149.099609375 261.48046875 243.059570312 139.080078125 359.059570312 139.080078125 c 0
 475.059570312 139.080078125 569.01953125 261.48046875 569.01953125 390.240234375 c 0
 569.01953125 519 475.059570312 638.66015625 359.059570312 638.66015625 c 0
 243.059570312 638.66015625 149.099609375 519 149.099609375 390.240234375 c 0
0 402 m 0
 0 624 162 801 362 801 c 0
 562 801 724 624 724 402 c 0
 724 180 562 0 362 0 c 0
 162 0 0 180 0 402 c 0
EndSplineSet
Validated: 33
EndChar

StartChar: Ocircumflex
Encoding: 212 212 153
Width: 839
Flags: W
HStem: 0 139.08<278.77 437.89> 638.66 162.34<278.77 437.89>
VStem: 0 149.1<288.822 493.441> 569.02 154.98<288.822 493.441>
LayerCount: 2
Fore
SplineSet
132 924 m 5
 132 846 l 5
 356 944 l 5
 589 844 l 5
 591 921 l 5
 406 1026 l 5
 300 1026 l 5
 132 924 l 5
149.099609375 390.240234375 m 0
 149.099609375 261.48046875 243.059570312 139.080078125 359.059570312 139.080078125 c 0
 475.059570312 139.080078125 569.01953125 261.48046875 569.01953125 390.240234375 c 0
 569.01953125 519 475.059570312 638.66015625 359.059570312 638.66015625 c 0
 243.059570312 638.66015625 149.099609375 519 149.099609375 390.240234375 c 0
0 402 m 0
 0 624 162 801 362 801 c 0
 562 801 724 624 724 402 c 0
 724 180 562 0 362 0 c 0
 162 0 0 180 0 402 c 0
EndSplineSet
Validated: 9
EndChar

StartChar: Odieresis
Encoding: 214 214 154
Width: 839
Flags: W
HStem: 0 139.08<278.77 437.89> 638.66 162.34<278.77 437.89> 897 124<208.2 301.8 442.2 535.8>
VStem: 0 149.1<288.822 493.441> 193 124<912.2 1005.8> 427 124<912.2 1005.8> 569.02 154.98<288.822 493.441>
LayerCount: 2
Fore
SplineSet
427 959 m 0
 427 993 455 1021 489 1021 c 0
 523 1021 551 993 551 959 c 0
 551 925 523 897 489 897 c 0
 455 897 427 925 427 959 c 0
193 959 m 0
 193 993 221 1021 255 1021 c 0
 289 1021 317 993 317 959 c 0
 317 925 289 897 255 897 c 0
 221 897 193 925 193 959 c 0
149.099609375 390.240234375 m 0
 149.099609375 261.48046875 243.059570312 139.080078125 359.059570312 139.080078125 c 0
 475.059570312 139.080078125 569.01953125 261.48046875 569.01953125 390.240234375 c 0
 569.01953125 519 475.059570312 638.66015625 359.059570312 638.66015625 c 0
 243.059570312 638.66015625 149.099609375 519 149.099609375 390.240234375 c 0
0 402 m 0
 0 624 162 801 362 801 c 0
 562 801 724 624 724 402 c 0
 724 180 562 0 362 0 c 0
 162 0 0 180 0 402 c 0
EndSplineSet
Validated: 1
EndChar

StartChar: Oslash
Encoding: 216 155 155
Width: 839
Flags: W
HStem: 0 139.08<278.77 437.89> 638.66 162.34<278.77 437.89>
VStem: 0 149.1<288.822 493.441> 569.02 154.98<288.822 493.441>
LayerCount: 2
Fore
SplineSet
149.099609375 390.240234375 m 0
 149.099609375 261.48046875 243.059570312 139.080078125 359.059570312 139.080078125 c 0
 475.059570312 139.080078125 569.01953125 261.48046875 569.01953125 390.240234375 c 0
 569.01953125 519 475.059570312 638.66015625 359.059570312 638.66015625 c 0
 243.059570312 638.66015625 149.099609375 519 149.099609375 390.240234375 c 0
0 402 m 0
 0 624 162 801 362 801 c 0
 562 801 724 624 724 402 c 0
 724 180 562 0 362 0 c 0
 162 0 0 180 0 402 c 0
EndSplineSet
Validated: 1
EndChar

StartChar: Oslash
Encoding: 216 216 156
Width: 839
Flags: W
HStem: 0 139.08<340.475 437.89> 638.66 162.34<278.77 370.607>
VStem: 0 149.1<288.822 493.441> 569.02 154.98<288.822 493.441>
LayerCount: 2
Fore
SplineSet
472 930 m 1
 630 930 l 1
 238 -150 l 1
 81 -150 l 1
 472 930 l 1
149.099609375 390.240234375 m 0
 149.099609375 261.48046875 243.059570312 139.080078125 359.059570312 139.080078125 c 0
 475.059570312 139.080078125 569.01953125 261.48046875 569.01953125 390.240234375 c 0
 569.01953125 519 475.059570312 638.66015625 359.059570312 638.66015625 c 0
 243.059570312 638.66015625 149.099609375 519 149.099609375 390.240234375 c 0
0 402 m 0
 0 624 162 801 362 801 c 0
 562 801 724 624 724 402 c 0
 724 180 562 0 362 0 c 0
 162 0 0 180 0 402 c 0
EndSplineSet
Validated: 5
EndChar

StartChar: Ugrave
Encoding: 217 217 157
Width: 715
Flags: W
LayerCount: 2
Fore
SplineSet
0 800 m 5
 1 222 l 5
 1 -67 605 -89 603 214 c 5
 600 800 l 5
 453 800 l 5
 459 247 l 5
 459 104 160 102 150 272 c 5
 149 800 l 5
 0 800 l 5
134 1005 m 25
 328 1005 l 25
 402 865 l 25
 348 865 l 25
 134 1005 l 25
EndSplineSet
Validated: 41
EndChar

StartChar: Uacute
Encoding: 218 218 158
Width: 715
Flags: W
LayerCount: 2
Fore
SplineSet
0 800 m 5
 1 222 l 5
 1 -67 605 -89 603 214 c 5
 600 800 l 5
 453 800 l 5
 459 247 l 5
 459 104 160 102 150 272 c 5
 149 800 l 5
 0 800 l 5
460 1010 m 25
 266 1010 l 25
 192 870 l 25
 246 870 l 25
 460 1010 l 25
EndSplineSet
Validated: 41
EndChar

StartChar: Ucircumflex
Encoding: 219 219 159
Width: 715
Flags: W
LayerCount: 2
Fore
SplineSet
0 800 m 1
 1 222 l 1
 1 -67 605 -89 603 214 c 1
 600 800 l 1
 453 800 l 1
 459 247 l 1
 459 104 160 102 150 272 c 1
 149 800 l 1
 0 800 l 1
65 936 m 1
 65 858 l 1
 289 956 l 1
 522 856 l 1
 524 933 l 1
 339 1038 l 1
 233 1038 l 1
 65 936 l 1
EndSplineSet
Validated: 41
EndChar

StartChar: Udieresis
Encoding: 220 220 160
Width: 715
Flags: W
HStem: 910 124<131.2 224.8 365.2 458.8>
VStem: 116 124<925.2 1018.8> 350 124<925.2 1018.8>
LayerCount: 2
Fore
SplineSet
0 800 m 5
 1 222 l 5
 1 -67 605 -89 603 214 c 5
 600 800 l 5
 453 800 l 5
 459 247 l 5
 459 104 160 102 150 272 c 5
 149 800 l 5
 0 800 l 5
350 972 m 0
 350 1006 378 1034 412 1034 c 0
 446 1034 474 1006 474 972 c 0
 474 938 446 910 412 910 c 0
 378 910 350 938 350 972 c 0
116 972 m 0
 116 1006 144 1034 178 1034 c 0
 212 1034 240 1006 240 972 c 0
 240 938 212 910 178 910 c 0
 144 910 116 938 116 972 c 0
EndSplineSet
Validated: 41
EndChar

StartChar: Yacute
Encoding: 221 221 161
Width: 846
Flags: W
LayerCount: 2
Fore
SplineSet
0 800 m 5
 312 305.5 l 5
 338.161132812 305.5 l 5
 147 0 l 5
 301 0 l 5
 473.725585938 305.5 l 5
 474 305.5 l 5
 766 800 l 5
 601 800 l 5
 396 440.5 l 5
 172 800 l 5
 0 800 l 5
545 1009 m 25
 351 1009 l 25
 277 869 l 25
 331 869 l 25
 545 1009 l 25
EndSplineSet
Validated: 9
EndChar

StartChar: f_i
Encoding: 258 -1 162
Width: 873
HStem: 0 21G<146 276 634.561 764.561> 487 121.53<0 146 277.925 634.561> 668.76 132.24<653.731 755.389>
VStem: 146 130<0 487 608.741 668.618> 634.561 130<0 487> 636.12 136.88<687.22 782.54>
LayerCount: 2
Fore
SplineSet
636.120117188 734.879882812 m 0xf4
 636.120117188 770.83984375 666.280273438 801 704.560546875 801 c 0
 742.83984375 801 773 770.83984375 773 734.879882812 c 0
 773 698.919921875 742.83984375 668.759765625 704.560546875 668.759765625 c 0
 666.280273438 668.759765625 636.120117188 698.919921875 636.120117188 734.879882812 c 0xf4
634.560546875 487 m 1xf8
 275.204101562 487 l 1
 276 0 l 1
 146 0 l 1
 146 487 l 1
 0 487 l 1
 0 609 l 1
 146 608.741210938 l 1
 146 800 384 938 494 813 c 1
 494 704 l 1
 414 798 281 703 277.924804688 608.530273438 c 1
 654 608 l 1
 764.560546875 608 l 1
 764.560546875 0 l 1
 634.560546875 0 l 1
 634.560546875 487 l 1xf8
EndSplineSet
Validated: 33
LCarets2: 1 635
Ligature2: "'liga' Standard Ligatures in Latin lookup 0-1" f i
EndChar

StartChar: f_f
Encoding: 259 -1 163
Width: 1126
Flags: W
HStem: 0 21G<146 276 637 767> 487 121.53<0 146 277.925 637 768.925 1026>
VStem: 146 130<0 487 608.741 668.618> 637 130<0 487 608.741 668.618>
LayerCount: 2
Fore
SplineSet
1026 608 m 1
 1026 487 l 1
 766.204101562 487 l 1
 767 0 l 1
 637 0 l 1
 637 487 l 1
 468.401367188 487 443.802734375 487 275.204101562 487 c 1
 276 0 l 1
 146 0 l 1
 146 487 l 1
 0 487 l 1
 0 609 l 1
 146 608.741210938 l 1
 146 800 384 938 494 813 c 1
 494 704 l 1
 414 798 281 703 277.924804688 608.530273438 c 1
 446.438575974 607.787370269 469.516601562 608.584960938 637 608.741210938 c 1
 637 800 875 938 985 813 c 1
 985 704 l 1
 905 798 772 703 768.924804688 608.530273438 c 1
 1026 608 l 1
EndSplineSet
Validated: 33
LCarets2: 1 553
Ligature2: "'liga' Standard Ligatures in Latin lookup 0-1" f f
EndChar

StartChar: f_f_i
Encoding: 260 -1 164
Width: 1339
Flags: W
HStem: 0 21G<146 276 612 742 1100.56 1230.56> 487 121.53<0 146 277.925 612 743.925 1100.56> 668.76 132.24<1119.73 1221.39>
VStem: 146 130<0 487 608.741 668.618> 612 130<0 487 608.741 668.618> 1100.56 130<0 487> 1102.12 136.88<687.22 782.54>
LayerCount: 2
Fore
SplineSet
1102.12011719 734.879882812 m 0xfa
 1102.12011719 770.83984375 1132.28027344 801 1170.56054688 801 c 0
 1208.83984375 801 1239 770.83984375 1239 734.879882812 c 0
 1239 698.919921875 1208.83984375 668.759765625 1170.56054688 668.759765625 c 0
 1132.28027344 668.759765625 1102.12011719 698.919921875 1102.12011719 734.879882812 c 0xfa
1100.56054688 487 m 1xfc
 741.204101562 487 l 1
 742 0 l 1
 612 0 l 1
 612 487 l 1
 443.401367188 487 443.802734375 487 275.204101562 487 c 1
 276 0 l 1
 146 0 l 1
 146 487 l 1
 0 487 l 1
 0 609 l 1
 146 608.741210938 l 1
 146 800 384 938 494 813 c 1
 494 704 l 1
 414 798 281 703 277.924804688 608.530273438 c 1
 446.433127542 607.79356833 444.51953125 608.58984375 612 608.741210938 c 1
 612 800 850 938 960 813 c 1
 960 704 l 1
 880 798 747 703 743.924804688 608.530273438 c 1
 1110 608 l 1
 1230.56054688 608 l 1
 1230.56054688 0 l 1
 1100.56054688 0 l 1
 1100.56054688 487 l 1xfc
EndSplineSet
Validated: 33
LCarets2: 2 556 1102
Ligature2: "'liga' Standard Ligatures in Latin lookup 0-1" f f i
EndChar

StartChar: f_t
Encoding: 261 -1 165
Width: 1281
HStem: 0 21G<146 276> 485 123<0 146 277.925 767 897 1181> 781 20G<767 897>
VStem: 146 130<0 487 608.741 668.618> 767 130<147.986 485 608 801>
LayerCount: 2
Fore
SplineSet
767 801 m 1
 897 801 l 1
 897 608 l 1
 1181 608 l 1
 1181 485 l 1
 897 485 l 1
 897 210 l 1
 897 204.568359375 l 2
 897 69 1075 135 1123 159 c 1
 1123 34 l 1
 977 -23 763 -30 767 175.5 c 1
 767 485 l 1
 602.200482885 484.781950491 439.154168408 486.361155491 275.204101562 487 c 1
 276 0 l 1
 146 0 l 1
 146 487 l 1
 0 487 l 1
 0 609 l 1
 146 608.741210938 l 1
 146 800 384 938 494 813 c 1
 494 704 l 1
 414 798 281 703 277.924804688 608.530273438 c 1
 440.952806316 608.35645215 603.745422099 607.947245015 767 608 c 1
 767 801 l 1
EndSplineSet
Validated: 33
LCarets2: 1 602
Ligature2: "'liga' Standard Ligatures in Latin lookup 0-1" f t
EndChar

StartChar: t_i
Encoding: 262 -1 166
Width: 884
Flags: W
HStem: 0 21G<645.561 775.561> 485 123<0 132 262 645.561> 668.76 132.24<664.731 766.389>
VStem: 132 130<147.986 485 608 801> 645.561 130<0 485> 647.12 136.88<687.22 782.54>
LayerCount: 2
Fore
SplineSet
647.120117188 734.879882812 m 0xf4
 647.120117188 770.83984375 677.280273438 801 715.560546875 801 c 0
 753.83984375 801 784 770.83984375 784 734.879882812 c 0
 784 698.919921875 753.83984375 668.759765625 715.560546875 668.759765625 c 0
 677.280273438 668.759765625 647.120117188 698.919921875 647.120117188 734.879882812 c 0xf4
132 801 m 1
 262 801 l 1
 262 608 l 1
 645.560546875 608 l 1
 665 608 l 1
 775.560546875 608 l 1
 775.560546875 0 l 1
 645.560546875 0 l 1
 645.560546875 485 l 1xf8
 262 485 l 1
 262 210 l 1
 262 204.568359375 l 2
 262 69 440 135 488 159 c 1
 488 34 l 1
 342 -23 128 -30 132 175.5 c 1
 132 485 l 1
 0 485 l 1
 0 608 l 1
 132 608 l 1
 132 801 l 1
EndSplineSet
Validated: 33
LCarets2: 1 646
Ligature2: "'liga' Standard Ligatures in Latin lookup 0-1" t i
EndChar

StartChar: t_t
Encoding: 263 -1 167
Width: 1292
HStem: 485 123<0 132 262 778 908 1192> 781 20G<132 262 778 908>
VStem: 132 130<147.986 485 608 801> 778 130<147.986 485 608 801>
LayerCount: 2
Fore
SplineSet
778 801 m 1
 908 801 l 1
 908 608 l 1
 1192 608 l 1
 1192 485 l 1
 908 485 l 1
 908 210 l 1
 908 204.568359375 l 2
 908 69 1086 135 1134 159 c 1
 1134 34 l 1
 988 -23 774 -30 778 175.5 c 1
 778 485 l 1
 656 485 l 1
 646 485 l 1
 262 485 l 1
 262 210 l 1
 262 204.568359375 l 2
 262 69 440 135 488 159 c 1
 488 34 l 1
 342 -23 128 -30 132 175.5 c 1
 132 485 l 1
 0 485 l 1
 0 608 l 1
 132 608 l 1
 132 801 l 1
 262 801 l 1
 262 608 l 1
 646 608 l 1
 656 608 l 1
 778 608 l 1
 778 801 l 1
EndSplineSet
Validated: 33
LCarets2: 1 646
Ligature2: "'liga' Standard Ligatures in Latin lookup 0-1" t t
EndChar

StartChar: t_t_i
Encoding: 264 -1 168
Width: 1530
HStem: 0 21G<1291.56 1421.56> 485 123<0 132 262 778 908 1291.56> 668.76 132.24<1310.73 1412.39>
VStem: 132 130<147.986 485 608 801> 778 130<147.986 485 608 801> 1291.56 130<0 485> 1293.12 136.88<687.22 782.54>
LayerCount: 2
Fore
SplineSet
1293.12011719 734.879882812 m 0xfa
 1293.12011719 770.83984375 1323.28027344 801 1361.56054688 801 c 0
 1399.83984375 801 1430 770.83984375 1430 734.879882812 c 0
 1430 698.919921875 1399.83984375 668.759765625 1361.56054688 668.759765625 c 0
 1323.28027344 668.759765625 1293.12011719 698.919921875 1293.12011719 734.879882812 c 0xfa
778 801 m 1
 908 801 l 1
 908 608 l 1
 1291.56054688 608 l 1
 1309 608 l 1
 1421.56054688 608 l 1
 1421.56054688 0 l 1
 1291.56054688 0 l 1
 1291.56054688 485 l 1xfc
 908 485 l 1
 908 210 l 1
 908 204.568359375 l 2
 908 69 1086 135 1134 159 c 1
 1134 34 l 1
 988 -23 774 -30 778 175.5 c 1
 778 485 l 1
 658 485 l 1
 646 485 l 1
 262 485 l 1
 262 210 l 1
 262 204.568359375 l 2
 262 69 440 135 488 159 c 1
 488 34 l 1
 342 -23 128 -30 132 175.5 c 1
 132 485 l 1
 0 485 l 1
 0 608 l 1
 132 608 l 1
 132 801 l 1
 262 801 l 1
 262 608 l 1
 646 608 l 1
 658 608 l 1
 778 608 l 1
 778 801 l 1
EndSplineSet
Validated: 33
LCarets2: 2 648 1293
Ligature2: "'liga' Standard Ligatures in Latin lookup 0-1" t t i
EndChar

StartChar: t_f
Encoding: 265 -1 169
Width: 1281
HStem: 0 21G<792 922> 485 123<0 132 262 792 923.925 1181> 781 20G<132 262>
VStem: 132 130<147.986 485 608 801> 792 130<0 487 608.741 668.618>
LayerCount: 2
Fore
SplineSet
132 801 m 1
 262 801 l 1
 262 608 l 1
 646 608 l 1
 646 609 l 1
 792 608.741210938 l 1
 792 800 1030 938 1140 813 c 1
 1140 704 l 1
 1060 798 927 703 923.924804688 608.530273438 c 1
 1181 608 l 1
 1181 487 l 1
 921.204101562 487 l 1
 922 0 l 1
 792 0 l 1
 792 487 l 1
 659 487 l 1
 262 485 l 1
 262 210 l 1
 262 204.568359375 l 2
 262 69 440 135 488 159 c 1
 488 34 l 1
 342 -23 128 -30 132 175.5 c 1
 132 485 l 1
 0 485 l 1
 0 608 l 1
 132 608 l 1
 132 801 l 1
EndSplineSet
Validated: 33
LCarets2: 1 650
Ligature2: "'liga' Standard Ligatures in Latin lookup 0-1" t f
EndChar

StartChar: zero
Encoding: 48 48 170
Width: 712
Flags: W
HStem: -1 125.07<235.992 363.139> 662.75 140.25<235.992 363.139>
VStem: 0 132.3<263.909 521.162> 468.9 143.1<263.909 521.162>
LayerCount: 2
Fore
SplineSet
132.299804688 393.41015625 m 4
 132.299804688 244.669921875 207.650390625 124.0703125 300.599609375 124.0703125 c 4
 393.549804688 124.0703125 468.900390625 244.669921875 468.900390625 393.41015625 c 4
 468.900390625 542.150390625 393.549804688 662.75 300.599609375 662.75 c 4
 207.650390625 662.75 132.299804688 542.150390625 132.299804688 393.41015625 c 4
0 401 m 0
 0 623 137 803 306 803 c 0
 475 803 612 623 612 401 c 0
 612 179 475 -1 306 -1 c 0
 137 -1 0 179 0 401 c 0
EndSplineSet
Validated: 1
EndChar

StartChar: one
Encoding: 49 49 171
Width: 430
Flags: W
LayerCount: 2
Fore
SplineSet
185 801 m 29
 0 608 l 29
 0 468.5 l 29
 182 655 l 29
 180 0 l 29
 330 0 l 29
 330 801 l 29
 185 801 l 29
EndSplineSet
Validated: 9
EndChar

StartChar: two
Encoding: 50 50 172
Width: 744
Flags: W
HStem: 0 138.5<196 644>
LayerCount: 2
Fore
SplineSet
0 652 m 5
 130 856 626.450195312 855.931640625 635 608 c 5
 636 452 192 202 196 138.5 c 13
 644 138 l 29
 644 0 l 29
 0 0 l 5
 0 324 469 458 466 564 c 5
 467 716 180 708 0 512.5 c 5
 0 652 l 5
EndSplineSet
Validated: 33
EndChar

StartChar: three
Encoding: 51 51 173
Width: 736
Flags: W
HStem: 342 117.5<167.231 372.78>
VStem: 466.231 169<182.06 281.646 519.854 619.44>
LayerCount: 2
Fore
SplineSet
167.231445312 459.5 m 1
 432.231445312 452 467.048828125 535.10546875 466.231445312 564 c 0
 467.231445312 716 180.231445312 708 0.2314453125 512.5 c 1
 0.2314453125 652 l 1
 130.231445312 856 626.681640625 855.931640625 635.231445312 608 c 0
 635.504882812 565.31640625 649.21484375 465.62109375 548.387695312 400.75 c 1
 649.21484375 335.87890625 635.504882812 236.18359375 635.231445312 193.5 c 0
 626.681640625 -54.431640625 130.231445312 -54.5 0.2314453125 149.5 c 1
 0.2314453125 289 l 1
 180.231445312 93.5 467.231445312 85.5 466.231445312 237.5 c 0
 467.048828125 266.39453125 432.231445312 349.5 167.231445312 342 c 1
 167.231445312 351 l 1
 167.231445312 450.5 l 1
 167.231445312 459.5 l 1
EndSplineSet
Validated: 33
EndChar

StartChar: four
Encoding: 52 52 174
Width: 798
Flags: W
LayerCount: 2
Fore
SplineSet
345 801 m 1
 0 406.5 l 1
 0 401 l 1
 0 274 l 1
 340.877929688 274 l 1
 340 0 l 1
 490 0 l 1
 490 274 l 1
 698 274 l 1
 698 401 l 1
 490 401 l 1
 490 801 l 1
 345 801 l 1
158.096679688 401 m 1
 342 603 l 1
 341.28515625 401 l 1
 158.096679688 401 l 1
EndSplineSet
Validated: 9
EndChar

StartChar: five
Encoding: 53 53 175
Width: 808
Flags: W
HStem: 52 138.5<-0.015625 63.5775>
VStem: 562.984 145<230.992 354.538>
LayerCount: 2
Fore
SplineSet
631.984375 800 m 1
 -0.015625 800 l 1
 -0.015625 339.5 l 1
 215.984375 374 545.080078125 474.375976562 562.984375 303 c 1
 560.984375 147 347.642578125 81.2568359375 -0.015625 190.5 c 1
 -0.015625 52 l 1
 177.984375 0 678.984375 -96 707.984375 296 c 1
 710.984375 636 281.984375 520 151.984375 488 c 1
 151.984375 670 l 1
 631.984375 670 l 1
 631.984375 800 l 1
EndSplineSet
Validated: 41
EndChar

StartChar: six
Encoding: 54 54 176
Width: 766
Flags: W
HStem: -0.40918 138.909<215.305 458.725> 665 137.46<304.533 416>
VStem: 517.112 148.888<188.81 339.437>
LayerCount: 2
Fore
SplineSet
517.112304688 265.5 m 4
 517.112304688 346.458984375 478.092900967 378.762084541 358 388 c 4
 306 392 146.999999999 393 151.297851562 260.232421875 c 4
 153.978930641 177.409557748 216.10081596 138.5 340 138.5 c 4
 478 138.5 517.112304688 184.541015625 517.112304688 265.5 c 4
166.049804688 448.701171875 m 5
 214 494 304 506 402 504 c 4
 587.044921875 500.223632812 666 403.333007812 666 256.135742188 c 4
 666 109.43359375 549.515625 -0.4091796875 342.9140625 -0.4091796875 c 4
 130.780273438 -0.4091796875 -11.7580683333 87.429553182 3 341 c 4
 14 530 88 770 416 802.459960938 c 5
 416 665 l 5
 194 668 169 492 166.049804688 448.701171875 c 5
EndSplineSet
Validated: 33
EndChar

StartChar: seven
Encoding: 55 55 177
Width: 779
Flags: W
LayerCount: 2
Fore
SplineSet
0 800 m 25
 1 667 l 25
 467 667 l 25
 123 0 l 25
 305 0 l 25
 679 800 l 25
 0 800 l 25
EndSplineSet
Validated: 9
EndChar

StartChar: eight
Encoding: 56 56 178
Width: 756
Flags: W
HStem: -2.98047 126.295<243.825 426.141> 405.76 108.919<261.481 391.84> 674 133<268.717 382.081>
VStem: -1.12012 158.714<198.307 332.61> 102.399 136<535.218 642.182> 414.399 132<535.334 642.182> 511.846 144.154<198.307 332.649>
LayerCount: 2
Fore
SplineSet
102.399414062 585 m 0xe8
 102.399414062 708 201.399414062 807 324.399414062 807 c 0
 447.399414062 807 546.399414062 708 546.399414062 585 c 0xec
 546.399414062 535.895507812 531.895507812 500.01953125 506.642578125 474.635742188 c 1
 596.68359375 429.78125 656 351.327148438 656 258.979492188 c 0
 656 113.83984375 509.479492188 -2.98046875 327.439453125 -2.98046875 c 0
 145.399414062 -2.98046875 -1.1201171875 113.83984375 -1.1201171875 258.979492188 c 0xf2
 -1.1201171875 351.224609375 58.064453125 429.607421875 147.9375 474.486328125 c 1
 119.520507812 499.877929688 102.399414062 535.798828125 102.399414062 585 c 0xe8
157.59375 264.536132812 m 0xf2
 157.59375 185.90234375 236.092773438 123.314453125 334.719726562 123.314453125 c 0
 433.34765625 123.314453125 511.845703125 185.90234375 511.845703125 264.536132812 c 0
 511.845703125 343.171875 433.34765625 405.759765625 334.719726562 405.759765625 c 0
 236.092773438 405.759765625 157.59375 343.171875 157.59375 264.536132812 c 0xf2
341.133789062 514.729492188 m 0
 382.991210938 518.993164062 414.399414062 542.02734375 414.399414062 586 c 0
 414.399414062 635 375.399414062 674 326.399414062 674 c 0
 277.399414062 674 238.399414062 635 238.399414062 586 c 0xec
 238.399414062 541.848632812 270.063476562 518.806640625 312.17578125 514.678710938 c 0
 317.233398438 514.8515625 322.322265625 514.939453125 327.439453125 514.939453125 c 0
 332.02734375 514.939453125 336.592773438 514.869140625 341.133789062 514.729492188 c 0
EndSplineSet
Validated: 1
EndChar

StartChar: nine
Encoding: 57 57 179
Width: 766
Flags: W
HStem: 1.13086 137.46<251.914 363.381> 665.091 138.909<209.189 452.609>
VStem: 1.91406 148.888<464.154 614.781>
LayerCount: 2
Fore
SplineSet
150.801757812 538.090820312 m 0
 150.801757812 457.131835938 189.821289062 424.829101562 309.9140625 415.590820312 c 0
 361.9140625 411.590820312 520.9140625 410.590820312 516.616210938 543.358398438 c 0
 513.935546875 626.181640625 451.813476562 665.090820312 327.9140625 665.090820312 c 0
 189.9140625 665.090820312 150.801757812 619.049804688 150.801757812 538.090820312 c 0
501.864257812 354.889648438 m 1
 453.9140625 309.590820312 363.9140625 297.590820312 265.9140625 299.590820312 c 0
 80.869140625 303.3671875 1.9140625 400.2578125 1.9140625 547.455078125 c 0
 1.9140625 694.157226562 118.3984375 804 325 804 c 0
 537.133789062 804 679.671875 716.161132812 664.9140625 462.590820312 c 0
 653.9140625 273.590820312 579.9140625 33.5908203125 251.9140625 1.130859375 c 1
 251.9140625 138.590820312 l 1
 473.9140625 135.590820312 498.9140625 311.590820312 501.864257812 354.889648438 c 1
EndSplineSet
Validated: 33
EndChar

StartChar: at
Encoding: 64 64 180
Width: 714
Flags: W
HStem: 77 83<180.833 236.439> 191 85.415<247.131 355.218> 390.169 90.8311<247.131 354.995>
VStem: 0.0175781 97<232.631 418.393> 143.018 86.1475<295.198 372.366> 375.725 101.293<297.126 369.458> 386.018 84<440.658 485> 540.018 75<231.832 437.065>
LayerCount: 2
Fore
SplineSet
229.165039062 333.291992188 m 0xfd
 229.165039062 301.912109375 266.661132812 276.415039062 298.041992188 276.415039062 c 0
 329.421875 276.415039062 375.724609375 301.912109375 375.724609375 333.291992188 c 0
 375.724609375 364.672851562 329.421875 390.168945312 298.041992188 390.168945312 c 0
 266.661132812 390.168945312 229.165039062 364.672851562 229.165039062 333.291992188 c 0xfd
143.017578125 336 m 0
 143.017578125 416 208.017578125 481 288.017578125 481 c 0
 327.252929688 481 362.880859375 465.365234375 389.001953125 439.994140625 c 1
 388.03125 454.139648438 387.020507812 469.052734375 386.017578125 485 c 1
 470.017578125 485 l 1xfb
 477.017578125 226 l 2
 480.017578125 187 532.564453125 204.015625 540.017578125 322 c 1
 530.815655408 579.646819536 355.824408742 533.209267562 268.017578125 518 c 0
 143.616260031 496.452098559 94.2731816601 425.675048709 97.017578125 286 c 0
 98 236 151.36328125 179.458984375 241.017578125 160 c 1
 236.017578125 77 l 1
 71.8984375 90.1220703125 3.017578125 196 0.017578125 291 c 1
 -1.2490234375 428.935546875 67.017578125 572 257.017578125 608 c 1
 456.607421875 625.791992188 607 581 615.017578125 323 c 1
 615.578125 210.23828125 560.017578125 125 484.017578125 121 c 0
 428.059326125 118.054828842 390.017578125 193 393.017578125 226 c 0
 393.28125 229.659179688 393.5234375 233.267578125 393.744140625 236.831054688 c 1
 367.280273438 208.631835938 329.68359375 191 288.017578125 191 c 0
 208.017578125 191 143.017578125 256 143.017578125 336 c 0
EndSplineSet
Validated: 33
EndChar

StartChar: germandbls
Encoding: 223 223 181
Width: 776
Flags: W
HStem: 0 138.5<-0.0771484 52.018 262.923 480.074> 330 114<321.923 431.271>
LayerCount: 2
Fore
SplineSet
-0.0771484375 138.5 m 1
 -0.0771484375 0 l 1
 210 0 232.922851562 128.5 248.922851562 458.5 c 1
 254 700 492 742 496.922851562 534 c 1
 491.922851562 446 321.922851562 444 321.922851562 444 c 1
 320.922851562 330 l 17
 603.922851562 334 581.922851562 74 262.922851562 141 c 1
 260.922851562 0 l 17
 731.922851562 -54 753.922851562 324 564.922851562 393 c 1
 711.922851562 436 649.922851562 798 407.922851562 804 c 1
 -96 800 233.922851562 138.5 -0.0771484375 138.5 c 1
EndSplineSet
Validated: 41
EndChar

StartChar: yen
Encoding: 165 165 183
Width: 846
Flags: W
LayerCount: 2
Fore
SplineSet
0 800 m 1
 320 394.5 l 1
 320 368 l 1
 126 368 l 1
 126 250 l 1
 320 250 l 1
 320 207 l 1
 124 207 l 1
 124 89 l 1
 320 89 l 1
 320 0 l 1
 466 0 l 1
 465.938091631 89 l 1
 656 89 l 1
 656 207 l 1
 465.856010872 207 l 1
 465.826100087 250 l 1
 658 250 l 1
 658 368 l 1
 465.744019328 368 l 1
 465.725585938 394.5 l 1
 466 394.5 l 1
 766 800 l 1
 601 800 l 1
 396 529.5 l 1
 172 800 l 1
 0 800 l 1
EndSplineSet
Validated: 9
EndChar

StartChar: logicalnot
Encoding: 172 172 184
Width: 734
Flags: W
HStem: 324 144<0 465>
VStem: 465 144<172 324>
LayerCount: 2
Fore
SplineSet
0 468 m 1
 609 468 l 1
 609 418 l 1
 609 324 l 1
 609 172 l 1
 465 172 l 1
 465 324 l 1
 0 324 l 1
 0 468 l 1
EndSplineSet
Validated: 1
EndChar

StartChar: registered
Encoding: 174 174 185
Width: 382
Flags: W
HStem: 475.29 18.0801<99.3298 185.157> 621.959 24.5605<115.94 136.462 151.156 170.832> 672.607 26.9678<115.94 167.165> 757.79 19.21<96.2777 186.566>
VStem: 0.31543 17.9346<577.509 674.216> 90.2949 25.6455<551.735 621.959 646.52 672.607 699.575 699.76> 168.855 26.1865<551.735 582.719> 265.12 16.8799<579.018 670.947>
LayerCount: 2
Fore
SplineSet
90.294921875 699.759765625 m 5
 115.940429688 699.759765625 l 5
 115.940429688 699.575195312 l 5
 151.69921875 699.575195312 l 6
 209.8515625 699.206054688 211.296875 623.067382812 151.15625 622.143554688 c 5
 173.008789062 619.001953125 194.861328125 579.825195312 195.041992188 551.735351562 c 5
 168.85546875 551.735351562 l 5
 166.092773438 573.015625 135.811523438 621.958984375 115.940429688 621.958984375 c 5
 115.940429688 551.735351562 l 5
 90.294921875 551.735351562 l 5
 90.294921875 699.759765625 l 5
115.940429688 646.51953125 m 5
 151.809570312 646.430664062 l 6
 179.3359375 646.853515625 178.42578125 672.349609375 151.809570312 672.517578125 c 6
 115.940429688 672.607421875 l 5
 115.940429688 646.51953125 l 5
18.25 625.580078125 m 0
 18.25 552.6953125 73.6376953125 493.370117188 141.685546875 493.370117188 c 0
 209.733398438 493.370117188 265.120117188 552.6953125 265.120117188 625.580078125 c 0
 265.120117188 698.46484375 209.733398438 757.790039062 141.685546875 757.790039062 c 0
 73.6376953125 757.790039062 18.25 698.46484375 18.25 625.580078125 c 0
0.3154296875 626.14453125 m 0
 0.3154296875 709.200195312 63.615234375 777 141.158203125 777 c 0
 218.700195312 777 282 709.200195312 282 626.14453125 c 0
 282 543.08984375 218.700195312 475.290039062 141.158203125 475.290039062 c 0
 63.615234375 475.290039062 0.3154296875 543.08984375 0.3154296875 626.14453125 c 0
EndSplineSet
Validated: 33
EndChar
